<svg width="180" height="40" viewBox="0 0 180 40" fill="none" xmlns="http://www.w3.org/2000/svg">
<g id="Company logo">
<path id="Union" fill-rule="evenodd" clip-rule="evenodd" d="M34.4526 5.06738H46.618L34.4526 34.1611V5.06738ZM67.3269 5.06738H55.1775L67.3269 34.1611V5.06738ZM50.8978 15.7903L58.6408 34.1612H53.5607L51.2465 28.3123H45.5799L50.8978 15.7903ZM88.608 27.6824L87.1735 23.5692H81.285L79.9298 27.6348C79.8743 27.7854 79.803 27.833 79.6524 27.833H77.1876C77.045 27.833 76.9895 27.7616 77.0132 27.5873L82.0934 13.1395C82.1964 12.8938 82.2677 12.6402 82.3153 11.808C82.3153 11.705 82.3708 11.6337 82.4658 11.6337H85.8896C86.0164 11.6337 86.0402 11.6574 86.0639 11.7843L91.7622 27.6111C91.786 27.7616 91.7622 27.833 91.6116 27.833H88.8536C88.7268 27.833 88.6555 27.7854 88.608 27.6824ZM82.3776 19.9549C82.272 20.2724 82.1687 20.5831 82.0696 20.8825H86.3889C86.2344 20.4004 86.0247 19.7623 85.7932 19.0577L85.7929 19.0567C85.2403 17.3752 84.5636 15.3158 84.2173 14.0984H84.1936C83.85 15.5275 83.0657 17.8859 82.3777 19.9547L82.3776 19.9549ZM99.0879 28.0786C100.57 28.0786 102.147 27.8092 103.748 27.1197C103.875 27.0721 103.899 27.0166 103.899 26.8978C103.851 26.4539 103.796 25.812 103.796 25.3206V10.4211C103.796 10.326 103.796 10.2784 103.677 10.2784H100.99C100.887 10.2784 100.839 10.326 100.839 10.4528V15.5012C100.419 15.4536 100.126 15.4299 99.7774 15.4299C95.4423 15.4299 92.7794 18.2909 92.7794 21.8652C92.7794 26.0101 95.5136 28.0786 99.0879 28.0786ZM100.839 25.3206C100.396 25.4633 99.9042 25.5188 99.4049 25.5188C97.4394 25.5188 95.8306 24.4092 95.8306 21.7146C95.8306 19.3291 97.487 17.9184 99.6823 17.9184C100.126 17.9184 100.514 17.966 100.839 18.0928V25.3206ZM106.478 21.7701C106.478 18.2672 108.768 15.4299 112.469 15.4299C116.266 15.4299 118.334 18.3147 118.334 21.6909C118.334 25.5188 115.893 28.0787 112.414 28.0787C108.301 28.0787 106.478 24.9006 106.478 21.7701ZM115.299 21.7701C115.299 19.7175 114.411 17.9184 112.319 17.9184C110.662 17.9184 109.482 19.3767 109.482 21.7147C109.482 23.9892 110.591 25.5664 112.469 25.5664C113.991 25.5664 115.299 24.3062 115.299 21.7701ZM121.112 10.2784C121.009 10.2784 120.938 10.326 120.938 10.4528V27.3178C120.938 27.3891 121.009 27.5159 121.112 27.5397C122.293 27.9043 123.529 28.0786 124.805 28.0786C128.459 28.0786 132.009 25.812 132.009 21.247C132.009 17.9422 129.743 15.4299 126.192 15.4299C125.376 15.4299 124.615 15.5567 123.949 15.7786L123.917 10.4766C123.917 10.3022 123.87 10.2784 123.696 10.2784H121.112ZM128.974 21.5482C128.974 24.2824 127.103 25.5663 125.082 25.5663C124.662 25.5663 124.29 25.5425 123.949 25.4395V18.2433C124.337 18.0928 124.805 17.966 125.669 17.966C127.619 17.966 128.974 19.2023 128.974 21.5482ZM144.572 22.3328C144.231 22.4121 143.24 22.4359 142.036 22.4359H137.027C137.098 24.1557 138.239 25.5426 140.752 25.5426C141.861 25.5426 142.876 25.3444 143.811 24.9482C143.882 24.9006 143.954 24.9244 143.954 25.0433V27.0959C143.954 27.2386 143.906 27.3178 143.811 27.3654C142.876 27.8092 141.79 28.0787 140.11 28.0787C135.624 28.0787 134.023 24.9244 134.023 21.889C134.023 18.4653 136.092 15.4299 139.817 15.4299C143.462 15.4299 144.873 18.2909 144.873 20.6368C144.873 21.3263 144.841 21.889 144.77 22.1585C144.746 22.2615 144.699 22.3091 144.572 22.3328ZM139.69 17.7996C137.986 17.7996 137.225 19.1072 137.027 20.3119H140.704H140.704C141.639 20.3119 141.956 20.3119 142.059 20.2881V20.09C142.059 19.3767 141.568 17.7996 139.69 17.7996Z" fill="#D0D5DD"/>
</g>
</svg>
