<svg width="180" height="40" viewBox="0 0 180 40" fill="none" xmlns="http://www.w3.org/2000/svg">
<g id="Company logo">
<path id="Vector" d="M93.0945 11.7594C93.0945 12.9576 92.1293 13.9228 90.9311 13.9228C89.7329 13.9228 88.7677 12.9576 88.7677 11.7594C88.7677 10.5612 89.6996 9.59596 90.9311 9.59596C92.1626 9.62925 93.0945 10.5945 93.0945 11.7594ZM84.1746 16.1195C84.1746 16.3192 84.1746 16.652 84.1746 16.652C84.1746 16.652 83.1428 15.3207 80.9461 15.3207C77.3183 15.3207 74.4892 18.0832 74.4892 21.9108C74.4892 25.7051 77.285 28.5009 80.9461 28.5009C83.1761 28.5009 84.1746 27.1363 84.1746 27.1363V27.7021C84.1746 27.9683 84.3743 28.168 84.6406 28.168H87.3365V15.6535C87.3365 15.6535 84.8736 15.6535 84.6406 15.6535C84.3743 15.6535 84.1746 15.8865 84.1746 16.1195ZM84.1746 24.1408C83.6754 24.873 82.6769 25.5054 81.4787 25.5054C79.3485 25.5054 77.7177 24.174 77.7177 21.9108C77.7177 19.6475 79.3485 18.3162 81.4787 18.3162C82.6436 18.3162 83.7086 18.9818 84.1746 19.6808V24.1408ZM89.3335 15.6535H92.5287V28.168H89.3335V15.6535ZM137.062 15.3207C134.865 15.3207 133.833 16.652 133.833 16.652V9.62925H130.638V28.168C130.638 28.168 133.101 28.168 133.334 28.168C133.6 28.168 133.8 27.9351 133.8 27.7021V27.1363C133.8 27.1363 134.832 28.5009 137.028 28.5009C140.656 28.5009 143.485 25.7051 143.485 21.9108C143.485 18.1165 140.656 15.3207 137.062 15.3207ZM136.529 25.4721C135.298 25.4721 134.333 24.8397 133.833 24.1075V19.6475C134.333 18.9818 135.398 18.2829 136.529 18.2829C138.659 18.2829 140.29 19.6142 140.29 21.8775C140.29 24.1408 138.659 25.4721 136.529 25.4721ZM128.974 20.7459V28.2013H125.779V21.112C125.779 19.0484 125.113 18.2163 123.316 18.2163C122.351 18.2163 121.352 18.7156 120.72 19.4478V28.168H117.524V15.6535H120.054C120.32 15.6535 120.52 15.8865 120.52 16.1195V16.652C121.452 15.6868 122.683 15.3207 123.915 15.3207C125.313 15.3207 126.478 15.7201 127.41 16.5189C128.541 17.4508 128.974 18.649 128.974 20.7459ZM109.769 15.3207C107.573 15.3207 106.541 16.652 106.541 16.652V9.62925H103.346V28.168C103.346 28.168 105.809 28.168 106.042 28.168C106.308 28.168 106.508 27.9351 106.508 27.7021V27.1363C106.508 27.1363 107.539 28.5009 109.736 28.5009C113.364 28.5009 116.193 25.7051 116.193 21.9108C116.226 18.1165 113.397 15.3207 109.769 15.3207ZM109.237 25.4721C108.005 25.4721 107.04 24.8397 106.541 24.1075V19.6475C107.04 18.9818 108.105 18.2829 109.237 18.2829C111.367 18.2829 112.998 19.6142 112.998 21.8775C112.998 24.1408 111.367 25.4721 109.237 25.4721ZM100.583 15.3207C101.548 15.3207 102.048 15.4871 102.048 15.4871V18.4493C102.048 18.4493 99.3851 17.5507 97.7209 19.4478V28.2013H94.5257V15.6535C94.5257 15.6535 96.9887 15.6535 97.2217 15.6535C97.4879 15.6535 97.6876 15.8865 97.6876 16.1195V16.652C98.2867 15.9531 99.5848 15.3207 100.583 15.3207ZM67.3998 27.0364C67.2334 26.637 67.067 26.2043 66.9006 25.8382C66.6343 25.2391 66.3681 24.6733 66.1351 24.1408L66.1018 24.1075C63.8052 19.115 61.3423 14.0559 58.7462 9.06343L58.6463 8.86373C58.3801 8.36448 58.1138 7.83195 57.8475 7.29942C57.5147 6.70032 57.1819 6.06794 56.6493 5.46884C55.5843 4.13751 54.0532 3.40527 52.4224 3.40527C50.7582 3.40527 49.2605 4.13751 48.1621 5.40227C47.6629 6.00137 47.2967 6.63375 46.9639 7.23285C46.6976 7.76538 46.4314 8.29792 46.1651 8.79717L46.0653 8.99686C43.5024 13.9894 41.0062 19.0484 38.7097 24.0409L38.6764 24.1075C38.4434 24.64 38.1771 25.2058 37.9109 25.8049C37.7444 26.171 37.578 26.5704 37.4116 27.0031C36.9789 28.2346 36.8458 29.3995 37.0122 30.5977C37.3783 33.094 39.0425 35.1908 41.339 36.1227C42.2044 36.4889 43.1031 36.6553 44.035 36.6553C44.3012 36.6553 44.6341 36.622 44.9003 36.5887C45.9987 36.4556 47.1303 36.0895 48.2287 35.4571C49.5933 34.6916 50.8913 33.5932 52.3558 31.9956C53.8203 33.5932 55.1516 34.6916 56.4829 35.4571C57.5813 36.0895 58.7129 36.4556 59.8113 36.5887C60.0775 36.622 60.4104 36.6553 60.6766 36.6553C61.6086 36.6553 62.5405 36.4889 63.3726 36.1227C65.7024 35.1908 67.3333 33.0607 67.6994 30.5977C67.9657 29.4328 67.8325 28.2679 67.3998 27.0364ZM52.3891 28.7671C50.5918 26.5039 49.4269 24.3737 49.0275 22.5764C48.8611 21.8109 48.8278 21.1453 48.9276 20.5462C48.9942 20.0136 49.1939 19.5477 49.4602 19.1483C50.0925 18.2496 51.1576 17.6838 52.3891 17.6838C53.6206 17.6838 54.7189 18.2163 55.318 19.1483C55.5843 19.5477 55.784 20.0136 55.8505 20.5462C55.9504 21.1453 55.9171 21.8442 55.7507 22.5764C55.3513 24.3405 54.1864 26.4706 52.3891 28.7671ZM65.6691 30.3314C65.4361 32.0622 64.2712 33.5599 62.6403 34.2256C61.8415 34.5584 60.9762 34.6583 60.1108 34.5584C59.2787 34.4586 58.4466 34.1923 57.5813 33.6931C56.3831 33.0274 55.1849 31.9956 53.787 30.4646C55.9837 27.7686 57.315 25.3057 57.8143 23.109C58.0472 22.0772 58.0805 21.1453 57.9807 20.2799C57.8475 19.4478 57.548 18.6823 57.082 18.0166C56.0502 16.5189 54.3195 15.6535 52.3891 15.6535C50.4587 15.6535 48.7279 16.5522 47.6961 18.0166C47.2302 18.6823 46.9306 19.4478 46.7975 20.2799C46.6644 21.1453 46.6976 22.1105 46.9639 23.109C47.4632 25.3057 48.8278 27.8019 50.9912 30.4979C49.6266 32.0289 48.3951 33.0607 47.1969 33.7263C46.3315 34.2256 45.4994 34.4919 44.6674 34.5917C43.7687 34.6916 42.9034 34.5584 42.1378 34.2589C40.507 33.5932 39.342 32.0955 39.1091 30.3647C39.0092 29.5326 39.0758 28.7006 39.4086 27.7686C39.5085 27.4358 39.6749 27.103 39.8413 26.7036C40.0743 26.171 40.3405 25.6052 40.6068 25.0394L40.6401 24.9728C42.9366 20.0136 45.3996 14.9546 47.9624 10.0286L48.0623 9.82895C48.3285 9.3297 48.5948 8.79716 48.8611 8.29792C49.1273 7.76538 49.4269 7.26613 49.793 6.83345C50.4919 6.03465 51.4239 5.60197 52.4557 5.60197C53.4874 5.60197 54.4194 6.03465 55.1183 6.83345C55.4844 7.26613 55.784 7.76538 56.0502 8.29792C56.3165 8.79716 56.5828 9.3297 56.849 9.82895L56.9489 10.0286C59.4784 14.9879 61.9414 20.0469 64.2379 25.0061V25.0394C64.5042 25.5719 64.7372 26.171 65.0034 26.7036C65.1699 27.103 65.3363 27.4358 65.4361 27.7686C65.7024 28.634 65.8022 29.4661 65.6691 30.3314Z" fill="#D0D5DD"/>
</g>
</svg>
