<svg width="21" height="21" viewBox="0 0 21 21" fill="none" xmlns="http://www.w3.org/2000/svg">
<mask id="path-1-inside-1_721_864" fill="white">
<path d="M18.3064 15.0465C18.0291 15.687 17.7009 16.2766 17.3207 16.8187C16.8024 17.5576 16.378 18.0692 16.051 18.3532C15.544 18.8194 15.0008 19.0582 14.4191 19.0718C14.0016 19.0718 13.498 18.953 12.9118 18.7119C12.3237 18.472 11.7832 18.3532 11.289 18.3532C10.7707 18.3532 10.2148 18.472 9.62026 18.7119C9.02478 18.953 8.54507 19.0786 8.17831 19.091C7.62052 19.1148 7.06454 18.8692 6.50957 18.3532C6.15537 18.0443 5.71233 17.5146 5.18158 16.7644C4.61214 15.9631 4.14397 15.0341 3.7772 13.9748C3.38441 12.8307 3.1875 11.7228 3.1875 10.6503C3.1875 9.42163 3.45299 8.36195 3.98475 7.47394C4.40267 6.76066 4.95865 6.198 5.6545 5.78495C6.35035 5.3719 7.10222 5.16141 7.91192 5.14794C8.35496 5.14794 8.93595 5.28499 9.65794 5.55432C10.3779 5.82456 10.8402 5.9616 11.0429 5.9616C11.1944 5.9616 11.7079 5.80136 12.5785 5.48189C13.4018 5.18563 14.0966 5.06296 14.6658 5.11128C16.2083 5.23576 17.3671 5.8438 18.1377 6.93924C16.7583 7.77507 16.0759 8.94577 16.0895 10.4476C16.1019 11.6174 16.5263 12.5908 17.3603 13.3637C17.7383 13.7225 18.1604 13.9997 18.63 14.1966C18.5282 14.492 18.4207 14.7749 18.3064 15.0465ZM14.7688 1.12605C14.7688 2.04292 14.4338 2.89901 13.7662 3.69139C12.9604 4.63338 11.9859 5.1777 10.929 5.09181C10.9155 4.98182 10.9077 4.86605 10.9077 4.7444C10.9077 3.8642 11.2909 2.92221 11.9714 2.152C12.3111 1.76204 12.7432 1.43778 13.2671 1.17912C13.7899 0.924319 14.2845 0.783408 14.7496 0.759277C14.7632 0.881849 14.7688 1.00444 14.7688 1.12605Z"/>
</mask>
<path d="M18.3064 15.0465C18.0291 15.687 17.7009 16.2766 17.3207 16.8187C16.8024 17.5576 16.378 18.0692 16.051 18.3532C15.544 18.8194 15.0008 19.0582 14.4191 19.0718C14.0016 19.0718 13.498 18.953 12.9118 18.7119C12.3237 18.472 11.7832 18.3532 11.289 18.3532C10.7707 18.3532 10.2148 18.472 9.62026 18.7119C9.02478 18.953 8.54507 19.0786 8.17831 19.091C7.62052 19.1148 7.06454 18.8692 6.50957 18.3532C6.15537 18.0443 5.71233 17.5146 5.18158 16.7644C4.61214 15.9631 4.14397 15.0341 3.7772 13.9748C3.38441 12.8307 3.1875 11.7228 3.1875 10.6503C3.1875 9.42163 3.45299 8.36195 3.98475 7.47394C4.40267 6.76066 4.95865 6.198 5.6545 5.78495C6.35035 5.3719 7.10222 5.16141 7.91192 5.14794C8.35496 5.14794 8.93595 5.28499 9.65794 5.55432C10.3779 5.82456 10.8402 5.9616 11.0429 5.9616C11.1944 5.9616 11.7079 5.80136 12.5785 5.48189C13.4018 5.18563 14.0966 5.06296 14.6658 5.11128C16.2083 5.23576 17.3671 5.8438 18.1377 6.93924C16.7583 7.77507 16.0759 8.94577 16.0895 10.4476C16.1019 11.6174 16.5263 12.5908 17.3603 13.3637C17.7383 13.7225 18.1604 13.9997 18.63 14.1966C18.5282 14.492 18.4207 14.7749 18.3064 15.0465ZM14.7688 1.12605C14.7688 2.04292 14.4338 2.89901 13.7662 3.69139C12.9604 4.63338 11.9859 5.1777 10.929 5.09181C10.9155 4.98182 10.9077 4.86605 10.9077 4.7444C10.9077 3.8642 11.2909 2.92221 11.9714 2.152C12.3111 1.76204 12.7432 1.43778 13.2671 1.17912C13.7899 0.924319 14.2845 0.783408 14.7496 0.759277C14.7632 0.881849 14.7688 1.00444 14.7688 1.12605Z" fill="white" stroke="white" mask="url(#path-1-inside-1_721_864)"/>
</svg>
