<svg width="30" height="44" viewBox="0 0 30 44" fill="none" xmlns="http://www.w3.org/2000/svg">
<rect x="0.688965" width="28.8445" height="44" rx="14.4223" fill="#B29A5E" fill-opacity="0.09"/>
<path d="M16.561 31.2711C16.3417 31.0031 16.2442 31.9533 19.1193 16.9444C19.168 16.7008 19.0462 16.4571 18.8025 16.3597L16.4879 15.4094C16.1224 15.2632 16.0736 14.7272 16.4148 14.5079C17.1701 14.0206 17.6086 13.1679 17.5356 12.2663C17.4381 10.8044 16.0249 9.75674 14.5874 10.0491C12.5651 10.4633 11.9072 13.2653 13.8077 14.4836C14.1488 14.7029 14.1001 15.2145 13.7346 15.3851L11.4199 16.3353C11.2006 16.4328 11.0544 16.6764 11.1032 16.9201C13.9539 31.9533 13.8564 31.0031 13.6371 31.2711C13.4422 31.4904 13.4179 31.466 11.1763 31.466C10.9083 31.466 10.689 31.6853 10.689 31.9533V33.5127C10.689 33.7807 10.9083 34 11.1763 34H19.0462C19.3142 34 19.5335 33.7807 19.5335 33.5127V31.929C19.5335 31.661 19.3142 31.4417 19.0462 31.4417C16.7559 31.466 16.7559 31.4904 16.561 31.2711Z" fill="#D29A2F"/>
</svg>
