<svg width="1440" height="716" viewBox="0 0 1440 716" fill="none" xmlns="http://www.w3.org/2000/svg">
<mask id="mask0_332_29332" style="mask-type:alpha" maskUnits="userSpaceOnUse" x="0" y="0" width="1440" height="716">
<rect width="1440" height="716" fill="url(#paint0_radial_332_29332)"/>
</mask>
<g mask="url(#mask0_332_29332)">
<mask id="path-2-inside-1_332_29332" fill="white">
<path d="M0 -42H160V118H0V-42Z"/>
</mask>
<path d="M0 -42H160V118H0V-42Z" fill="white"/>
<path d="M160 118V119H161V118H160ZM159 -42V118H161V-42H159ZM160 117H0V119H160V117Z" fill="#2F2B43" fill-opacity="0.2" mask="url(#path-2-inside-1_332_29332)"/>
<mask id="path-4-inside-2_332_29332" fill="white">
<path d="M160 -42H320V118H160V-42Z"/>
</mask>
<path d="M160 -42H320V118H160V-42Z" fill="white"/>
<path d="M320 118V119H321V118H320ZM319 -42V118H321V-42H319ZM320 117H160V119H320V117Z" fill="#2F2B43" fill-opacity="0.2" mask="url(#path-4-inside-2_332_29332)"/>
<mask id="path-6-inside-3_332_29332" fill="white">
<path d="M320 -42H480V118H320V-42Z"/>
</mask>
<path d="M320 -42H480V118H320V-42Z" fill="#F6F6F8"/>
<path d="M480 118V119H481V118H480ZM479 -42V118H481V-42H479ZM480 117H320V119H480V117Z" fill="#2F2B43" fill-opacity="0.2" mask="url(#path-6-inside-3_332_29332)"/>
<mask id="path-8-inside-4_332_29332" fill="white">
<path d="M480 -42H640V118H480V-42Z"/>
</mask>
<path d="M480 -42H640V118H480V-42Z" fill="white"/>
<path d="M640 118V119H641V118H640ZM639 -42V118H641V-42H639ZM640 117H480V119H640V117Z" fill="#2F2B43" fill-opacity="0.2" mask="url(#path-8-inside-4_332_29332)"/>
<mask id="path-10-inside-5_332_29332" fill="white">
<path d="M640 -42H800V118H640V-42Z"/>
</mask>
<path d="M640 -42H800V118H640V-42Z" fill="white"/>
<path d="M800 118V119H801V118H800ZM799 -42V118H801V-42H799ZM800 117H640V119H800V117Z" fill="#2F2B43" fill-opacity="0.2" mask="url(#path-10-inside-5_332_29332)"/>
<mask id="path-12-inside-6_332_29332" fill="white">
<path d="M800 -42H960V118H800V-42Z"/>
</mask>
<path d="M800 -42H960V118H800V-42Z" fill="white"/>
<path d="M960 118V119H961V118H960ZM959 -42V118H961V-42H959ZM960 117H800V119H960V117Z" fill="#2F2B43" fill-opacity="0.2" mask="url(#path-12-inside-6_332_29332)"/>
<mask id="path-14-inside-7_332_29332" fill="white">
<path d="M960 -42H1120V118H960V-42Z"/>
</mask>
<path d="M960 -42H1120V118H960V-42Z" fill="white"/>
<path d="M1120 118V119H1121V118H1120ZM1119 -42V118H1121V-42H1119ZM1120 117H960V119H1120V117Z" fill="#2F2B43" fill-opacity="0.2" mask="url(#path-14-inside-7_332_29332)"/>
<mask id="path-16-inside-8_332_29332" fill="white">
<path d="M1120 -42H1280V118H1120V-42Z"/>
</mask>
<path d="M1120 -42H1280V118H1120V-42Z" fill="white"/>
<path d="M1280 118V119H1281V118H1280ZM1279 -42V118H1281V-42H1279ZM1280 117H1120V119H1280V117Z" fill="#2F2B43" fill-opacity="0.2" mask="url(#path-16-inside-8_332_29332)"/>
<mask id="path-18-inside-9_332_29332" fill="white">
<path d="M1280 -42H1440V118H1280V-42Z"/>
</mask>
<path d="M1280 -42H1440V118H1280V-42Z" fill="white"/>
<path d="M1440 117H1280V119H1440V117Z" fill="#2F2B43" fill-opacity="0.2" mask="url(#path-18-inside-9_332_29332)"/>
<mask id="path-20-inside-10_332_29332" fill="white">
<path d="M0 118H160V278H0V118Z"/>
</mask>
<path d="M0 118H160V278H0V118Z" fill="white"/>
<path d="M160 278V279H161V278H160ZM159 118V278H161V118H159ZM160 277H0V279H160V277Z" fill="#2F2B43" fill-opacity="0.2" mask="url(#path-20-inside-10_332_29332)"/>
<mask id="path-22-inside-11_332_29332" fill="white">
<path d="M160 118H320V278H160V118Z"/>
</mask>
<path d="M160 118H320V278H160V118Z" fill="white"/>
<path d="M320 278V279H321V278H320ZM319 118V278H321V118H319ZM320 277H160V279H320V277Z" fill="#2F2B43" fill-opacity="0.2" mask="url(#path-22-inside-11_332_29332)"/>
<mask id="path-24-inside-12_332_29332" fill="white">
<path d="M320 118H480V278H320V118Z"/>
</mask>
<path d="M320 118H480V278H320V118Z" fill="white"/>
<path d="M480 278V279H481V278H480ZM479 118V278H481V118H479ZM480 277H320V279H480V277Z" fill="#2F2B43" fill-opacity="0.2" mask="url(#path-24-inside-12_332_29332)"/>
<mask id="path-26-inside-13_332_29332" fill="white">
<path d="M480 118H640V278H480V118Z"/>
</mask>
<path d="M480 118H640V278H480V118Z" fill="white"/>
<path d="M640 278V279H641V278H640ZM639 118V278H641V118H639ZM640 277H480V279H640V277Z" fill="#2F2B43" fill-opacity="0.2" mask="url(#path-26-inside-13_332_29332)"/>
<mask id="path-28-inside-14_332_29332" fill="white">
<path d="M640 118H800V278H640V118Z"/>
</mask>
<path d="M640 118H800V278H640V118Z" fill="white"/>
<path d="M800 278V279H801V278H800ZM799 118V278H801V118H799ZM800 277H640V279H800V277Z" fill="#2F2B43" fill-opacity="0.2" mask="url(#path-28-inside-14_332_29332)"/>
<mask id="path-30-inside-15_332_29332" fill="white">
<path d="M800 118H960V278H800V118Z"/>
</mask>
<path d="M800 118H960V278H800V118Z" fill="white"/>
<path d="M960 278V279H961V278H960ZM959 118V278H961V118H959ZM960 277H800V279H960V277Z" fill="#2F2B43" fill-opacity="0.2" mask="url(#path-30-inside-15_332_29332)"/>
<mask id="path-32-inside-16_332_29332" fill="white">
<path d="M960 118H1120V278H960V118Z"/>
</mask>
<path d="M960 118H1120V278H960V118Z" fill="white"/>
<path d="M1120 278V279H1121V278H1120ZM1119 118V278H1121V118H1119ZM1120 277H960V279H1120V277Z" fill="#2F2B43" fill-opacity="0.2" mask="url(#path-32-inside-16_332_29332)"/>
<mask id="path-34-inside-17_332_29332" fill="white">
<path d="M1120 118H1280V278H1120V118Z"/>
</mask>
<path d="M1120 118H1280V278H1120V118Z" fill="#F6F6F8"/>
<path d="M1280 278V279H1281V278H1280ZM1279 118V278H1281V118H1279ZM1280 277H1120V279H1280V277Z" fill="#2F2B43" fill-opacity="0.2" mask="url(#path-34-inside-17_332_29332)"/>
<mask id="path-36-inside-18_332_29332" fill="white">
<path d="M1280 118H1440V278H1280V118Z"/>
</mask>
<path d="M1280 118H1440V278H1280V118Z" fill="white"/>
<path d="M1440 277H1280V279H1440V277Z" fill="#2F2B43" fill-opacity="0.2" mask="url(#path-36-inside-18_332_29332)"/>
<mask id="path-38-inside-19_332_29332" fill="white">
<path d="M0 278H160V438H0V278Z"/>
</mask>
<path d="M0 278H160V438H0V278Z" fill="white"/>
<path d="M160 438V439H161V438H160ZM159 278V438H161V278H159ZM160 437H0V439H160V437Z" fill="#2F2B43" fill-opacity="0.2" mask="url(#path-38-inside-19_332_29332)"/>
<mask id="path-40-inside-20_332_29332" fill="white">
<path d="M160 278H320V438H160V278Z"/>
</mask>
<path d="M160 278H320V438H160V278Z" fill="white"/>
<path d="M320 438V439H321V438H320ZM319 278V438H321V278H319ZM320 437H160V439H320V437Z" fill="#2F2B43" fill-opacity="0.2" mask="url(#path-40-inside-20_332_29332)"/>
<mask id="path-42-inside-21_332_29332" fill="white">
<path d="M320 278H480V438H320V278Z"/>
</mask>
<path d="M320 278H480V438H320V278Z" fill="white"/>
<path d="M480 438V439H481V438H480ZM479 278V438H481V278H479ZM480 437H320V439H480V437Z" fill="#2F2B43" fill-opacity="0.2" mask="url(#path-42-inside-21_332_29332)"/>
<mask id="path-44-inside-22_332_29332" fill="white">
<path d="M480 278H640V438H480V278Z"/>
</mask>
<path d="M480 278H640V438H480V278Z" fill="white"/>
<path d="M640 438V439H641V438H640ZM639 278V438H641V278H639ZM640 437H480V439H640V437Z" fill="#2F2B43" fill-opacity="0.2" mask="url(#path-44-inside-22_332_29332)"/>
<mask id="path-46-inside-23_332_29332" fill="white">
<path d="M640 278H800V438H640V278Z"/>
</mask>
<path d="M640 278H800V438H640V278Z" fill="white"/>
<path d="M800 438V439H801V438H800ZM799 278V438H801V278H799ZM800 437H640V439H800V437Z" fill="#2F2B43" fill-opacity="0.2" mask="url(#path-46-inside-23_332_29332)"/>
<mask id="path-48-inside-24_332_29332" fill="white">
<path d="M800 278H960V438H800V278Z"/>
</mask>
<path d="M800 278H960V438H800V278Z" fill="white"/>
<path d="M960 438V439H961V438H960ZM959 278V438H961V278H959ZM960 437H800V439H960V437Z" fill="#2F2B43" fill-opacity="0.2" mask="url(#path-48-inside-24_332_29332)"/>
<mask id="path-50-inside-25_332_29332" fill="white">
<path d="M960 278H1120V438H960V278Z"/>
</mask>
<path d="M960 278H1120V438H960V278Z" fill="white"/>
<path d="M1120 438V439H1121V438H1120ZM1119 278V438H1121V278H1119ZM1120 437H960V439H1120V437Z" fill="#2F2B43" fill-opacity="0.2" mask="url(#path-50-inside-25_332_29332)"/>
<mask id="path-52-inside-26_332_29332" fill="white">
<path d="M1120 278H1280V438H1120V278Z"/>
</mask>
<path d="M1120 278H1280V438H1120V278Z" fill="white"/>
<path d="M1280 438V439H1281V438H1280ZM1279 278V438H1281V278H1279ZM1280 437H1120V439H1280V437Z" fill="#2F2B43" fill-opacity="0.2" mask="url(#path-52-inside-26_332_29332)"/>
<mask id="path-54-inside-27_332_29332" fill="white">
<path d="M1280 278H1440V438H1280V278Z"/>
</mask>
<path d="M1280 278H1440V438H1280V278Z" fill="white"/>
<path d="M1440 437H1280V439H1440V437Z" fill="#2F2B43" fill-opacity="0.2" mask="url(#path-54-inside-27_332_29332)"/>
<mask id="path-56-inside-28_332_29332" fill="white">
<path d="M0 438H160V598H0V438Z"/>
</mask>
<path d="M0 438H160V598H0V438Z" fill="white"/>
<path d="M160 598V599H161V598H160ZM159 438V598H161V438H159ZM160 597H0V599H160V597Z" fill="#2F2B43" fill-opacity="0.2" mask="url(#path-56-inside-28_332_29332)"/>
<mask id="path-58-inside-29_332_29332" fill="white">
<path d="M160 438H320V598H160V438Z"/>
</mask>
<path d="M160 438H320V598H160V438Z" fill="white"/>
<path d="M320 598V599H321V598H320ZM319 438V598H321V438H319ZM320 597H160V599H320V597Z" fill="#2F2B43" fill-opacity="0.2" mask="url(#path-58-inside-29_332_29332)"/>
<mask id="path-60-inside-30_332_29332" fill="white">
<path d="M320 438H480V598H320V438Z"/>
</mask>
<path d="M320 438H480V598H320V438Z" fill="white"/>
<path d="M480 598V599H481V598H480ZM479 438V598H481V438H479ZM480 597H320V599H480V597Z" fill="#2F2B43" fill-opacity="0.2" mask="url(#path-60-inside-30_332_29332)"/>
<mask id="path-62-inside-31_332_29332" fill="white">
<path d="M480 438H640V598H480V438Z"/>
</mask>
<path d="M480 438H640V598H480V438Z" fill="white"/>
<path d="M640 598V599H641V598H640ZM639 438V598H641V438H639ZM640 597H480V599H640V597Z" fill="#2F2B43" fill-opacity="0.2" mask="url(#path-62-inside-31_332_29332)"/>
<mask id="path-64-inside-32_332_29332" fill="white">
<path d="M640 438H800V598H640V438Z"/>
</mask>
<path d="M640 438H800V598H640V438Z" fill="white"/>
<path d="M800 598V599H801V598H800ZM799 438V598H801V438H799ZM800 597H640V599H800V597Z" fill="#2F2B43" fill-opacity="0.2" mask="url(#path-64-inside-32_332_29332)"/>
<mask id="path-66-inside-33_332_29332" fill="white">
<path d="M800 438H960V598H800V438Z"/>
</mask>
<path d="M800 438H960V598H800V438Z" fill="white"/>
<path d="M960 598V599H961V598H960ZM959 438V598H961V438H959ZM960 597H800V599H960V597Z" fill="#2F2B43" fill-opacity="0.2" mask="url(#path-66-inside-33_332_29332)"/>
<mask id="path-68-inside-34_332_29332" fill="white">
<path d="M960 438H1120V598H960V438Z"/>
</mask>
<path d="M960 438H1120V598H960V438Z" fill="#F6F6F8"/>
<path d="M1120 598V599H1121V598H1120ZM1119 438V598H1121V438H1119ZM1120 597H960V599H1120V597Z" fill="#2F2B43" fill-opacity="0.2" mask="url(#path-68-inside-34_332_29332)"/>
<mask id="path-70-inside-35_332_29332" fill="white">
<path d="M1120 438H1280V598H1120V438Z"/>
</mask>
<path d="M1120 438H1280V598H1120V438Z" fill="white"/>
<path d="M1280 598V599H1281V598H1280ZM1279 438V598H1281V438H1279ZM1280 597H1120V599H1280V597Z" fill="#2F2B43" fill-opacity="0.2" mask="url(#path-70-inside-35_332_29332)"/>
<mask id="path-72-inside-36_332_29332" fill="white">
<path d="M1280 438H1440V598H1280V438Z"/>
</mask>
<path d="M1280 438H1440V598H1280V438Z" fill="white"/>
<path d="M1440 597H1280V599H1440V597Z" fill="#2F2B43" fill-opacity="0.2" mask="url(#path-72-inside-36_332_29332)"/>
<mask id="path-74-inside-37_332_29332" fill="white">
<path d="M0 598H160V758H0V598Z"/>
</mask>
<path d="M0 598H160V758H0V598Z" fill="white"/>
<path d="M160 758V759H161V758H160ZM159 598V758H161V598H159ZM160 757H0V759H160V757Z" fill="#2F2B43" fill-opacity="0.2" mask="url(#path-74-inside-37_332_29332)"/>
<mask id="path-76-inside-38_332_29332" fill="white">
<path d="M160 598H320V758H160V598Z"/>
</mask>
<path d="M160 598H320V758H160V598Z" fill="white"/>
<path d="M320 758V759H321V758H320ZM319 598V758H321V598H319ZM320 757H160V759H320V757Z" fill="#2F2B43" fill-opacity="0.2" mask="url(#path-76-inside-38_332_29332)"/>
<mask id="path-78-inside-39_332_29332" fill="white">
<path d="M320 598H480V758H320V598Z"/>
</mask>
<path d="M320 598H480V758H320V598Z" fill="white"/>
<path d="M480 758V759H481V758H480ZM479 598V758H481V598H479ZM480 757H320V759H480V757Z" fill="#2F2B43" fill-opacity="0.2" mask="url(#path-78-inside-39_332_29332)"/>
<mask id="path-80-inside-40_332_29332" fill="white">
<path d="M480 598H640V758H480V598Z"/>
</mask>
<path d="M480 598H640V758H480V598Z" fill="#F6F6F8"/>
<path d="M640 758V759H641V758H640ZM639 598V758H641V598H639ZM640 757H480V759H640V757Z" fill="#2F2B43" fill-opacity="0.2" mask="url(#path-80-inside-40_332_29332)"/>
<mask id="path-82-inside-41_332_29332" fill="white">
<path d="M640 598H800V758H640V598Z"/>
</mask>
<path d="M640 598H800V758H640V598Z" fill="white"/>
<path d="M800 758V759H801V758H800ZM799 598V758H801V598H799ZM800 757H640V759H800V757Z" fill="#2F2B43" fill-opacity="0.2" mask="url(#path-82-inside-41_332_29332)"/>
<mask id="path-84-inside-42_332_29332" fill="white">
<path d="M800 598H960V758H800V598Z"/>
</mask>
<path d="M800 598H960V758H800V598Z" fill="white"/>
<path d="M960 758V759H961V758H960ZM959 598V758H961V598H959ZM960 757H800V759H960V757Z" fill="#2F2B43" fill-opacity="0.2" mask="url(#path-84-inside-42_332_29332)"/>
<mask id="path-86-inside-43_332_29332" fill="white">
<path d="M960 598H1120V758H960V598Z"/>
</mask>
<path d="M960 598H1120V758H960V598Z" fill="white"/>
<path d="M1120 758V759H1121V758H1120ZM1119 598V758H1121V598H1119ZM1120 757H960V759H1120V757Z" fill="#2F2B43" fill-opacity="0.2" mask="url(#path-86-inside-43_332_29332)"/>
<mask id="path-88-inside-44_332_29332" fill="white">
<path d="M1120 598H1280V758H1120V598Z"/>
</mask>
<path d="M1120 598H1280V758H1120V598Z" fill="white"/>
<path d="M1280 758V759H1281V758H1280ZM1279 598V758H1281V598H1279ZM1280 757H1120V759H1280V757Z" fill="#2F2B43" fill-opacity="0.2" mask="url(#path-88-inside-44_332_29332)"/>
<mask id="path-90-inside-45_332_29332" fill="white">
<path d="M1280 598H1440V758H1280V598Z"/>
</mask>
<path d="M1280 598H1440V758H1280V598Z" fill="white"/>
<path d="M1440 757H1280V759H1440V757Z" fill="#2F2B43" fill-opacity="0.2" mask="url(#path-90-inside-45_332_29332)"/>
</g>
<defs>
<radialGradient id="paint0_radial_332_29332" cx="0" cy="0" r="1" gradientUnits="userSpaceOnUse" gradientTransform="translate(720 358) rotate(90) scale(358 720)">
<stop stop-color="white"/>
<stop offset="1" stop-color="white" stop-opacity="0"/>
</radialGradient>
</defs>
</svg>
