<svg width="80" height="79" viewBox="0 0 80 79" fill="none" xmlns="http://www.w3.org/2000/svg">
<path d="M8 27.6C8 18.6392 8 14.1587 9.7439 10.7362C11.2779 7.72556 13.7256 5.27787 16.7362 3.7439C20.1587 2 24.6392 2 33.6 2H46.4C55.3608 2 59.8413 2 63.2638 3.7439C66.2744 5.27787 68.7221 7.72556 70.2561 10.7362C72 14.1587 72 18.6392 72 27.6V40.4C72 49.3608 72 53.8413 70.2561 57.2638C68.7221 60.2744 66.2744 62.7221 63.2638 64.2561C59.8413 66 55.3608 66 46.4 66H33.6C24.6392 66 20.1587 66 16.7362 64.2561C13.7256 62.7221 11.2779 60.2744 9.7439 57.2638C8 53.8413 8 49.3608 8 40.4V27.6Z" fill="url(#paint0_linear_332_29430)"/>
<g filter="url(#filter0_dddd_332_29430)">
<g filter="url(#filter1_d_332_29430)">
<path fill-rule="evenodd" clip-rule="evenodd" d="M25.0737 46.0867C25.1502 47.0235 25.3145 47.8847 25.7266 48.6936C26.3658 49.948 27.3857 50.9679 28.6401 51.607C29.449 52.0192 30.3101 52.1835 31.247 52.26C32.1489 52.3337 33.2562 52.3337 34.5978 52.3337H48.0643C48.9429 52.3337 49.7008 52.3337 50.3251 52.2827C50.984 52.2289 51.6393 52.11 52.27 51.7887C53.2108 51.3093 53.9757 50.5444 54.455 49.6036C54.7764 48.973 54.8952 48.3176 54.9491 47.6587C54.9948 47.0991 55 46.4324 55 45.667C55 37.9789 55 30.2908 55 22.6027C55 21.7242 55.0001 20.9662 54.9491 20.3419C54.8952 19.683 54.7764 19.0277 54.455 18.397C53.9757 17.4562 53.2108 16.6913 52.27 16.212C51.6393 15.8906 50.984 15.7718 50.3251 15.7179C49.7008 15.6669 48.9429 15.667 48.0643 15.667H34.5978C33.2563 15.667 32.1489 15.667 31.247 15.7407C30.3101 15.8172 29.449 15.9815 28.6401 16.3936C27.3857 17.0328 26.3658 18.0526 25.7266 19.3071C25.3145 20.116 25.1502 20.9771 25.0737 21.914C25 22.8159 25 23.9232 25 25.2648V42.7358C25 43.8542 24.9826 44.9727 25.0737 46.0867ZM51.6268 47.3873C51.5898 47.84 51.527 48.0079 51.485 48.0903C51.3252 48.4039 51.0703 48.6589 50.7567 48.8187C50.6743 48.8607 50.5064 48.9235 50.0536 48.9604C49.5814 48.999 48.9609 49.0003 48 49.0003H34.6667C33.239 49.0003 32.2685 48.999 31.5184 48.9377C30.7877 48.878 30.414 48.7698 30.1534 48.637C29.5262 48.3174 29.0162 47.8075 28.6966 47.1803C28.398 46.5942 28.2504 46.0867 28.3613 45.2331C28.574 43.5972 29.9728 42.3337 31.6667 42.3337H51.6667C51.6667 44.0087 51.7633 45.7162 51.6268 47.3873Z" fill="url(#paint1_linear_332_29430)" shape-rendering="crispEdges"/>
</g>
</g>
<defs>
<filter id="filter0_dddd_332_29430" x="0.625" y="0.25" width="78.75" height="78.75" filterUnits="userSpaceOnUse" color-interpolation-filters="sRGB">
<feFlood flood-opacity="0" result="BackgroundImageFix"/>
<feColorMatrix in="SourceAlpha" type="matrix" values="0 0 0 0 0 0 0 0 0 0 0 0 0 0 0 0 0 0 127 0" result="hardAlpha"/>
<feOffset dy="0.254745"/>
<feGaussianBlur stdDeviation="0.438727"/>
<feColorMatrix type="matrix" values="0 0 0 0 0 0 0 0 0 0 0 0 0 0 0 0 0 0 0.0452935 0"/>
<feBlend mode="normal" in2="BackgroundImageFix" result="effect1_dropShadow_332_29430"/>
<feColorMatrix in="SourceAlpha" type="matrix" values="0 0 0 0 0 0 0 0 0 0 0 0 0 0 0 0 0 0 127 0" result="hardAlpha"/>
<feOffset dy="0.704337"/>
<feGaussianBlur stdDeviation="1.21303"/>
<feColorMatrix type="matrix" values="0 0 0 0 0 0 0 0 0 0 0 0 0 0 0 0 0 0 0.065 0"/>
<feBlend mode="normal" in2="effect1_dropShadow_332_29430" result="effect2_dropShadow_332_29430"/>
<feColorMatrix in="SourceAlpha" type="matrix" values="0 0 0 0 0 0 0 0 0 0 0 0 0 0 0 0 0 0 127 0" result="hardAlpha"/>
<feOffset dy="1.69577"/>
<feGaussianBlur stdDeviation="2.9205"/>
<feColorMatrix type="matrix" values="0 0 0 0 0 0 0 0 0 0 0 0 0 0 0 0 0 0 0.0847066 0"/>
<feBlend mode="normal" in2="effect2_dropShadow_332_29430" result="effect3_dropShadow_332_29430"/>
<feColorMatrix in="SourceAlpha" type="matrix" values="0 0 0 0 0 0 0 0 0 0 0 0 0 0 0 0 0 0 127 0" result="hardAlpha"/>
<feOffset dy="5.625"/>
<feGaussianBlur stdDeviation="9.6875"/>
<feColorMatrix type="matrix" values="0 0 0 0 0 0 0 0 0 0 0 0 0 0 0 0 0 0 0.13 0"/>
<feBlend mode="normal" in2="effect3_dropShadow_332_29430" result="effect4_dropShadow_332_29430"/>
<feBlend mode="normal" in="SourceGraphic" in2="effect4_dropShadow_332_29430" result="shape"/>
</filter>
<filter id="filter1_d_332_29430" x="24.4987" y="15.417" width="31.0013" height="37.667" filterUnits="userSpaceOnUse" color-interpolation-filters="sRGB">
<feFlood flood-opacity="0" result="BackgroundImageFix"/>
<feColorMatrix in="SourceAlpha" type="matrix" values="0 0 0 0 0 0 0 0 0 0 0 0 0 0 0 0 0 0 127 0" result="hardAlpha"/>
<feOffset dy="0.25"/>
<feGaussianBlur stdDeviation="0.25"/>
<feComposite in2="hardAlpha" operator="out"/>
<feColorMatrix type="matrix" values="0 0 0 0 0 0 0 0 0 0 0 0 0 0 0 0 0 0 0.2 0"/>
<feBlend mode="normal" in2="BackgroundImageFix" result="effect1_dropShadow_332_29430"/>
<feBlend mode="normal" in="SourceGraphic" in2="effect1_dropShadow_332_29430" result="shape"/>
</filter>
<linearGradient id="paint0_linear_332_29430" x1="40" y1="2" x2="40" y2="66" gradientUnits="userSpaceOnUse">
<stop stop-color="#D8D8D8"/>
<stop offset="1" stop-color="#A6A6A6"/>
</linearGradient>
<linearGradient id="paint1_linear_332_29430" x1="39.9993" y1="15.667" x2="39.9993" y2="52.3337" gradientUnits="userSpaceOnUse">
<stop stop-color="white"/>
<stop offset="1" stop-color="white" stop-opacity="0.7"/>
</linearGradient>
</defs>
</svg>
