<svg width="20" height="20" viewBox="0 0 20 20" fill="none" xmlns="http://www.w3.org/2000/svg">
<g id="check-verified-03">
<g clip-path="url(#clip0_477_46036)">
<rect width="20" height="20" rx="10" fill="#F2F4F7"/>
<path id="Icon" d="M7.50002 10.0003L9.16669 11.667L12.9167 7.91699M7.66827 17.1677C7.9414 17.1316 8.2173 17.2057 8.43487 17.3733L9.43757 18.1427C9.76902 18.3973 10.2301 18.3973 10.5606 18.1427L11.6013 17.3436C11.7957 17.1946 12.0411 17.1288 12.2836 17.1612L13.5854 17.3325C13.9992 17.3872 14.3983 17.1566 14.5584 16.7705L15.0593 15.5594C15.1528 15.3326 15.3324 15.153 15.5593 15.0594L16.7703 14.5585C17.1564 14.3993 17.3869 13.9993 17.3323 13.5854L17.1675 12.3308C17.1314 12.0577 17.2054 11.7818 17.373 11.5642L18.1424 10.5614C18.397 10.23 18.397 9.76885 18.1424 9.4383L17.3434 8.39759C17.1943 8.20315 17.1286 7.95779 17.161 7.7152L17.3323 6.41339C17.3869 5.99951 17.1564 5.60045 16.7703 5.44027L15.5593 4.93936C15.3324 4.84584 15.1528 4.66621 15.0593 4.43937L14.5584 3.22829C14.3992 2.84219 13.9992 2.61164 13.5854 2.66627L12.2836 2.83756C12.0411 2.87089 11.7957 2.80515 11.6022 2.65701L10.5615 1.85796C10.2301 1.60334 9.76902 1.60334 9.43849 1.85796L8.39784 2.65701C8.20341 2.80515 7.95806 2.87089 7.71549 2.83941L6.41374 2.66812C5.99989 2.61349 5.60085 2.84404 5.44068 3.23014L4.94072 4.44122C4.84628 4.66714 4.66667 4.84677 4.44076 4.94121L3.22975 5.44119C2.84367 5.60137 2.61314 6.00044 2.66776 6.41431L2.83904 7.71613C2.87052 7.95872 2.80479 8.20408 2.65665 8.39759L1.85764 9.4383C1.60303 9.76978 1.60303 10.2309 1.85764 10.5614L2.65665 11.6021C2.80571 11.7966 2.87145 12.0419 2.83904 12.2845L2.66776 13.5863C2.61314 14.0002 2.84367 14.3993 3.22975 14.5595L4.44076 15.0604C4.66759 15.1539 4.84721 15.3335 4.94072 15.5604L5.4416 16.7714C5.60085 17.1575 6.00082 17.3881 6.41467 17.3335L7.66827 17.1677Z" stroke="black" stroke-width="2" stroke-linecap="round" stroke-linejoin="round"/>
</g>
</g>
<defs>
<clipPath id="clip0_477_46036">
<rect width="20" height="20" rx="10" fill="white"/>
</clipPath>
</defs>
</svg>
