<svg width="1512" height="582" viewBox="0 0 1512 582" fill="none" xmlns="http://www.w3.org/2000/svg">
<path d="M537.111 44V29H539.691V31.91C540.261 29.99 542.181 28.85 543.891 28.85C544.281 28.85 544.671 28.88 545.061 28.97V31.64C544.581 31.43 544.161 31.4 543.651 31.4C541.761 31.4 539.691 33.05 539.691 36.56V44H537.111ZM556.96 44.3C552.58 44.3 549.4 40.97 549.4 36.5C549.4 32.09 552.31 28.7 557.02 28.7C561.76 28.7 564.55 32.54 564.22 37.19H552.01C552.1 39.92 554.26 41.96 556.99 41.96C558.88 41.96 560.41 41.24 561.34 39.44H563.98C563.26 42.08 560.77 44.3 556.96 44.3ZM556.93 30.98C554.8 30.98 552.61 32.21 552.13 35.15H561.49C561.01 32.36 559.18 30.98 556.93 30.98ZM575.773 44.3C572.533 44.3 569.923 42.68 569.683 39.65H572.323C572.653 41.48 574.273 42.11 575.803 42.11C577.453 42.11 578.683 41.45 578.683 40.13C578.683 38.93 577.993 38.21 576.193 37.73L574.033 37.16C571.423 36.47 570.163 34.91 570.163 32.75C570.163 30.26 572.353 28.7 575.353 28.7C578.533 28.7 580.573 30.59 580.813 32.99H578.233C577.843 31.67 576.763 30.86 575.353 30.86C573.913 30.86 572.773 31.55 572.773 32.72C572.773 33.83 573.463 34.43 575.053 34.88L577.453 35.51C579.973 36.14 581.293 37.67 581.293 39.95C581.293 42.95 578.893 44.3 575.773 44.3ZM594.337 44.3C589.957 44.3 586.777 40.97 586.777 36.5C586.777 32.09 589.687 28.7 594.397 28.7C599.137 28.7 601.927 32.54 601.597 37.19H589.387C589.477 39.92 591.637 41.96 594.367 41.96C596.257 41.96 597.787 41.24 598.717 39.44H601.357C600.637 42.08 598.147 44.3 594.337 44.3ZM594.307 30.98C592.177 30.98 589.987 32.21 589.507 35.15H598.867C598.387 32.36 596.557 30.98 594.307 30.98ZM614.5 44.3C610.3 44.3 607.15 40.79 607.15 36.5C607.15 32.21 610.3 28.7 614.5 28.7C616.78 28.7 618.79 29.87 619.78 31.31V29H622.36V44H619.78V41.69C618.79 43.13 616.78 44.3 614.5 44.3ZM614.89 41.93C617.89 41.93 619.99 39.53 619.99 36.5C619.99 33.47 617.89 31.07 614.89 31.07C611.86 31.07 609.76 33.47 609.76 36.5C609.76 39.53 611.86 41.93 614.89 41.93ZM630.216 44V29H632.796V31.91C633.366 29.99 635.286 28.85 636.996 28.85C637.386 28.85 637.776 28.88 638.166 28.97V31.64C637.686 31.43 637.266 31.4 636.756 31.4C634.866 31.4 632.796 33.05 632.796 36.56V44H630.216ZM650.335 44.3C645.775 44.3 642.505 40.79 642.505 36.5C642.505 32.21 645.775 28.7 650.335 28.7C654.145 28.7 656.995 31.04 657.895 34.28H655.135C654.445 32.36 652.705 31.07 650.335 31.07C647.215 31.07 645.115 33.47 645.115 36.5C645.115 39.53 647.215 41.93 650.335 41.93C652.705 41.93 654.445 40.64 655.135 38.72H657.895C657.025 41.96 654.145 44.3 650.335 44.3ZM666.892 44H664.312V21.5H666.892V31.31C667.942 29.51 669.712 28.7 671.662 28.7C675.022 28.7 677.332 31.04 677.332 34.76V44H674.782V35.15C674.782 32.63 673.372 31.07 671.242 31.07C668.842 31.07 666.892 33.05 666.892 36.56V44ZM701.304 44.3C697.404 44.3 694.764 41.69 694.764 38.18C694.764 35.09 697.044 33.38 699.294 32.09L699.444 32C698.154 30.8 696.864 29.21 696.864 27.17C696.864 24.32 699.264 22.34 702.294 22.34C705.444 22.34 707.544 24.56 707.544 27.29C707.544 29.93 705.504 31.46 703.434 32.51L707.964 36.95L710.484 33.74H713.484L709.644 38.6L715.194 44H711.804L708.144 40.46C705.924 43.07 704.034 44.3 701.304 44.3ZM701.394 41.96C703.314 41.96 704.694 40.97 706.464 38.84L701.154 33.68L700.764 33.89C698.634 35 697.374 36.17 697.374 38.21C697.374 40.58 699.324 41.96 701.394 41.96ZM699.354 27.23C699.354 28.67 700.344 29.6 701.754 30.92L701.904 30.83C703.614 29.93 704.994 29.09 704.994 27.47C704.994 25.79 703.914 24.59 702.234 24.59C700.704 24.59 699.354 25.58 699.354 27.23ZM736.838 44.3C732.638 44.3 729.488 40.79 729.488 36.5C729.488 32.21 732.638 28.7 736.838 28.7C739.118 28.7 741.128 29.87 742.118 31.31V21.5H744.698V44H742.118V41.69C741.128 43.13 739.118 44.3 736.838 44.3ZM737.228 41.93C740.228 41.93 742.328 39.53 742.328 36.5C742.328 33.47 740.228 31.07 737.228 31.07C734.198 31.07 732.098 33.47 732.098 36.5C732.098 39.53 734.198 41.93 737.228 41.93ZM758.944 44.3C754.564 44.3 751.384 40.97 751.384 36.5C751.384 32.09 754.294 28.7 759.004 28.7C763.744 28.7 766.534 32.54 766.204 37.19H753.994C754.084 39.92 756.244 41.96 758.974 41.96C760.864 41.96 762.394 41.24 763.324 39.44H765.964C765.244 42.08 762.754 44.3 758.944 44.3ZM758.914 30.98C756.784 30.98 754.594 32.21 754.114 35.15H763.474C762.994 32.36 761.164 30.98 758.914 30.98ZM777.343 44L770.413 29H773.293L778.423 40.37L783.553 29H786.433L779.503 44H777.343ZM798.108 44.3C793.728 44.3 790.548 40.97 790.548 36.5C790.548 32.09 793.458 28.7 798.168 28.7C802.908 28.7 805.698 32.54 805.368 37.19H793.158C793.248 39.92 795.408 41.96 798.138 41.96C800.028 41.96 801.558 41.24 802.488 39.44H805.128C804.408 42.08 801.918 44.3 798.108 44.3ZM798.078 30.98C795.948 30.98 793.758 32.21 793.278 35.15H802.638C802.158 32.36 800.328 30.98 798.078 30.98ZM812.091 44V21.5H814.671V44H812.091ZM829.222 44.3C824.662 44.3 821.362 40.82 821.362 36.5C821.362 32.18 824.662 28.7 829.222 28.7C833.722 28.7 837.052 32.18 837.052 36.5C837.052 40.82 833.722 44.3 829.222 44.3ZM829.222 41.9C832.342 41.9 834.412 39.5 834.412 36.5C834.412 33.5 832.342 31.1 829.222 31.1C826.102 31.1 824.002 33.5 824.002 36.5C824.002 39.5 826.102 41.9 829.222 41.9ZM846.335 50.27H843.755V29H846.335V31.31C847.325 29.87 849.335 28.7 851.615 28.7C855.815 28.7 858.965 32.21 858.965 36.5C858.965 40.79 855.815 44.3 851.615 44.3C849.335 44.3 847.325 43.13 846.335 41.69V50.27ZM851.225 41.93C854.225 41.93 856.325 39.53 856.325 36.5C856.325 33.47 854.225 31.07 851.225 31.07C848.225 31.07 846.125 33.47 846.125 36.5C846.125 39.53 848.225 41.93 851.225 41.93ZM885.001 44V35.18C885.001 32.75 883.981 31.07 882.031 31.07C879.631 31.07 878.011 33.08 877.921 36.32V44H875.341V35.18C875.341 32.75 874.351 31.07 872.401 31.07C869.971 31.07 868.261 33.17 868.261 36.56V44H865.681V29H868.261V31.31C869.131 29.72 870.751 28.7 872.791 28.7C875.041 28.7 876.661 29.9 877.411 31.91C878.221 29.96 880.051 28.7 882.331 28.7C885.601 28.7 887.581 31.1 887.581 34.79V44H885.001ZM901.614 44.3C897.234 44.3 894.054 40.97 894.054 36.5C894.054 32.09 896.964 28.7 901.674 28.7C906.414 28.7 909.204 32.54 908.874 37.19H896.664C896.754 39.92 898.914 41.96 901.644 41.96C903.534 41.96 905.064 41.24 905.994 39.44H908.634C907.914 42.08 905.424 44.3 901.614 44.3ZM901.584 30.98C899.454 30.98 897.264 32.21 896.784 35.15H906.144C905.664 32.36 903.834 30.98 901.584 30.98ZM915.597 44V29H918.177V31.31C919.227 29.51 920.997 28.7 922.947 28.7C926.307 28.7 928.617 31.04 928.617 34.76V44H926.067V35.15C926.067 32.63 924.657 31.07 922.527 31.07C920.127 31.07 918.177 33.05 918.177 36.56V44H915.597ZM941.907 44.15C939.267 44.15 937.317 42.68 937.317 39.56V31.37H934.137V29H937.317V24.83H939.897V29H944.217V31.37H939.897V39.23C939.897 41.15 940.737 41.78 942.387 41.78C943.017 41.78 943.737 41.69 944.217 41.48V43.79C943.587 44 942.837 44.15 941.907 44.15ZM562.491 110.3C557.931 110.3 554.631 106.82 554.631 102.5C554.631 98.18 557.931 94.7 562.491 94.7C566.991 94.7 570.321 98.18 570.321 102.5C570.321 106.82 566.991 110.3 562.491 110.3ZM562.491 107.9C565.611 107.9 567.681 105.5 567.681 102.5C567.681 99.5 565.611 97.1 562.491 97.1C559.371 97.1 557.271 99.5 557.271 102.5C557.271 105.5 559.371 107.9 562.491 107.9ZM577.025 110V95H579.605V97.31C580.655 95.51 582.425 94.7 584.375 94.7C587.735 94.7 590.045 97.04 590.045 100.76V110H587.495V101.15C587.495 98.63 586.085 97.07 583.955 97.07C581.555 97.07 579.605 99.05 579.605 102.56V110H577.025ZM618.637 110L610.507 102.5V110H607.927V87.5H610.507V100.85L617.047 95H620.467L613.087 101.63L622.117 110H618.637ZM632.522 110.3C628.142 110.3 624.962 106.97 624.962 102.5C624.962 98.09 627.872 94.7 632.582 94.7C637.322 94.7 640.112 98.54 639.782 103.19H627.572C627.662 105.92 629.822 107.96 632.552 107.96C634.442 107.96 635.972 107.24 636.902 105.44H639.542C638.822 108.08 636.332 110.3 632.522 110.3ZM632.492 96.98C630.362 96.98 628.172 98.21 627.692 101.15H637.052C636.572 98.36 634.742 96.98 632.492 96.98ZM650.232 116.27H647.352L650.622 109.22L644.052 95H646.902L652.062 106.4L657.192 95H660.072L650.232 116.27ZM671.964 110L681.384 88.7H683.694L693.144 110H690.234L687.474 103.79H677.544L674.844 110H671.964ZM682.494 92.48L678.654 101.27H686.364L682.494 92.48ZM699.137 110V88.7H701.927V110H699.137ZM725.743 110.15C723.103 110.15 721.153 108.68 721.153 105.56V97.37H717.973V95H721.153V90.83H723.733V95H728.053V97.37H723.733V105.23C723.733 107.15 724.573 107.78 726.223 107.78C726.853 107.78 727.573 107.69 728.053 107.48V109.79C727.423 110 726.673 110.15 725.743 110.15ZM740.534 110.3C736.154 110.3 732.974 106.97 732.974 102.5C732.974 98.09 735.884 94.7 740.594 94.7C745.334 94.7 748.124 98.54 747.794 103.19H735.584C735.674 105.92 737.834 107.96 740.564 107.96C742.454 107.96 743.984 107.24 744.914 105.44H747.554C746.834 108.08 744.344 110.3 740.534 110.3ZM740.504 96.98C738.374 96.98 736.184 98.21 735.704 101.15H745.064C744.584 98.36 742.754 96.98 740.504 96.98ZM761.177 110.3C756.617 110.3 753.347 106.79 753.347 102.5C753.347 98.21 756.617 94.7 761.177 94.7C764.987 94.7 767.837 97.04 768.737 100.28H765.977C765.287 98.36 763.547 97.07 761.177 97.07C758.057 97.07 755.957 99.47 755.957 102.5C755.957 105.53 758.057 107.93 761.177 107.93C763.547 107.93 765.287 106.64 765.977 104.72H768.737C767.867 107.96 764.987 110.3 761.177 110.3ZM777.734 110H775.154V87.5H777.734V97.31C778.784 95.51 780.554 94.7 782.504 94.7C785.864 94.7 788.174 97.04 788.174 100.76V110H785.624V101.15C785.624 98.63 784.214 97.07 782.084 97.07C779.684 97.07 777.734 99.05 777.734 102.56V110ZM795.82 110V95H798.4V97.31C799.45 95.51 801.22 94.7 803.17 94.7C806.53 94.7 808.84 97.04 808.84 100.76V110H806.29V101.15C806.29 98.63 804.88 97.07 802.75 97.07C800.35 97.07 798.4 99.05 798.4 102.56V110H795.82ZM823.146 110.3C818.586 110.3 815.286 106.82 815.286 102.5C815.286 98.18 818.586 94.7 823.146 94.7C827.646 94.7 830.976 98.18 830.976 102.5C830.976 106.82 827.646 110.3 823.146 110.3ZM823.146 107.9C826.266 107.9 828.336 105.5 828.336 102.5C828.336 99.5 826.266 97.1 823.146 97.1C820.026 97.1 817.926 99.5 817.926 102.5C817.926 105.5 820.026 107.9 823.146 107.9ZM837.679 110V87.5H840.259V110H837.679ZM854.81 110.3C850.25 110.3 846.95 106.82 846.95 102.5C846.95 98.18 850.25 94.7 854.81 94.7C859.31 94.7 862.64 98.18 862.64 102.5C862.64 106.82 859.31 110.3 854.81 110.3ZM854.81 107.9C857.93 107.9 860 105.5 860 102.5C860 99.5 857.93 97.1 854.81 97.1C851.69 97.1 849.59 99.5 849.59 102.5C849.59 105.5 851.69 107.9 854.81 107.9ZM875.943 116.57C871.923 116.57 869.163 114.38 868.683 111.38H871.203C871.893 113.39 873.573 114.29 876.003 114.29C878.733 114.29 880.743 112.49 880.743 109.1V107.33C879.693 108.86 877.773 109.97 875.523 109.97C871.323 109.97 868.173 106.64 868.173 102.32C868.173 98.06 871.323 94.7 875.523 94.7C877.773 94.7 879.693 95.78 880.743 97.31V95H883.323V109.07C883.323 114.08 880.023 116.57 875.943 116.57ZM875.883 107.57C878.883 107.57 880.953 105.35 880.953 102.32C880.953 99.32 878.883 97.07 875.883 97.07C872.883 97.07 870.813 99.32 870.813 102.32C870.813 105.35 872.883 107.57 875.883 107.57ZM892.501 90.98C891.451 90.98 890.641 90.2 890.641 89.15C890.641 88.16 891.451 87.32 892.501 87.32C893.551 87.32 894.301 88.16 894.301 89.15C894.301 90.2 893.551 90.98 892.501 90.98ZM891.181 110V95H893.761V110H891.181ZM908.042 110.3C903.662 110.3 900.482 106.97 900.482 102.5C900.482 98.09 903.392 94.7 908.102 94.7C912.842 94.7 915.632 98.54 915.302 103.19H903.092C903.182 105.92 905.342 107.96 908.072 107.96C909.962 107.96 911.492 107.24 912.422 105.44H915.062C914.342 108.08 911.852 110.3 908.042 110.3ZM908.012 96.98C905.882 96.98 903.692 98.21 903.212 101.15H912.572C912.092 98.36 910.262 96.98 908.012 96.98ZM926.855 110.3C923.615 110.3 921.005 108.68 920.765 105.65H923.405C923.735 107.48 925.355 108.11 926.885 108.11C928.535 108.11 929.765 107.45 929.765 106.13C929.765 104.93 929.075 104.21 927.275 103.73L925.115 103.16C922.505 102.47 921.245 100.91 921.245 98.75C921.245 96.26 923.435 94.7 926.435 94.7C929.615 94.7 931.655 96.59 931.895 98.99H929.315C928.925 97.67 927.845 96.86 926.435 96.86C924.995 96.86 923.855 97.55 923.855 98.72C923.855 99.83 924.545 100.43 926.135 100.88L928.535 101.51C931.055 102.14 932.375 103.67 932.375 105.95C932.375 108.95 929.975 110.3 926.855 110.3Z" fill="black"/>
<path d="M115.095 494.3C111.825 494.3 109.575 491.93 109.575 488.21V479H112.155V487.82C112.155 490.34 113.475 491.93 115.545 491.93C117.855 491.93 119.715 489.89 119.715 486.44V479H122.295V494H119.715V491.69C118.725 493.46 117.015 494.3 115.095 494.3ZM134.989 494.3C131.749 494.3 129.139 492.68 128.899 489.65H131.539C131.869 491.48 133.489 492.11 135.019 492.11C136.669 492.11 137.899 491.45 137.899 490.13C137.899 488.93 137.209 488.21 135.409 487.73L133.249 487.16C130.639 486.47 129.379 484.91 129.379 482.75C129.379 480.26 131.569 478.7 134.569 478.7C137.749 478.7 139.789 480.59 140.029 482.99H137.449C137.059 481.67 135.979 480.86 134.569 480.86C133.129 480.86 131.989 481.55 131.989 482.72C131.989 483.83 132.679 484.43 134.269 484.88L136.669 485.51C139.189 486.14 140.509 487.67 140.509 489.95C140.509 492.95 138.109 494.3 134.989 494.3ZM153.552 494.3C149.172 494.3 145.992 490.97 145.992 486.5C145.992 482.09 148.902 478.7 153.612 478.7C158.352 478.7 161.142 482.54 160.812 487.19H148.602C148.692 489.92 150.852 491.96 153.582 491.96C155.472 491.96 157.002 491.24 157.932 489.44H160.572C159.852 492.08 157.362 494.3 153.552 494.3ZM153.522 480.98C151.392 480.98 149.202 482.21 148.722 485.15H158.082C157.602 482.36 155.772 480.98 153.522 480.98ZM167.535 494V479H170.115V481.91C170.685 479.99 172.605 478.85 174.315 478.85C174.705 478.85 175.095 478.88 175.485 478.97V481.64C175.005 481.43 174.585 481.4 174.075 481.4C172.185 481.4 170.115 483.05 170.115 486.56V494H167.535ZM179.782 486.89V484.31H187.432V486.89H179.782ZM201.494 494.3C196.934 494.3 193.634 490.82 193.634 486.5C193.634 482.18 196.934 478.7 201.494 478.7C205.994 478.7 209.324 482.18 209.324 486.5C209.324 490.82 205.994 494.3 201.494 494.3ZM201.494 491.9C204.614 491.9 206.684 489.5 206.684 486.5C206.684 483.5 204.614 481.1 201.494 481.1C198.374 481.1 196.274 483.5 196.274 486.5C196.274 489.5 198.374 491.9 201.494 491.9ZM216.028 494V479H218.608V481.91C219.178 479.99 221.098 478.85 222.808 478.85C223.198 478.85 223.588 478.88 223.978 478.97V481.64C223.498 481.43 223.078 481.4 222.568 481.4C220.678 481.4 218.608 483.05 218.608 486.56V494H216.028ZM231.334 474.98C230.284 474.98 229.474 474.2 229.474 473.15C229.474 472.16 230.284 471.32 231.334 471.32C232.384 471.32 233.134 472.16 233.134 473.15C233.134 474.2 232.384 474.98 231.334 474.98ZM230.014 494V479H232.594V494H230.014ZM246.875 494.3C242.495 494.3 239.315 490.97 239.315 486.5C239.315 482.09 242.225 478.7 246.935 478.7C251.675 478.7 254.465 482.54 254.135 487.19H241.925C242.015 489.92 244.175 491.96 246.905 491.96C248.795 491.96 250.325 491.24 251.255 489.44H253.895C253.175 492.08 250.685 494.3 246.875 494.3ZM246.845 480.98C244.715 480.98 242.525 482.21 242.045 485.15H251.405C250.925 482.36 249.095 480.98 246.845 480.98ZM260.858 494V479H263.438V481.31C264.488 479.51 266.258 478.7 268.208 478.7C271.568 478.7 273.878 481.04 273.878 484.76V494H271.328V485.15C271.328 482.63 269.918 481.07 267.788 481.07C265.388 481.07 263.438 483.05 263.438 486.56V494H260.858ZM287.168 494.15C284.528 494.15 282.578 492.68 282.578 489.56V481.37H279.398V479H282.578V474.83H285.158V479H289.478V481.37H285.158V489.23C285.158 491.15 285.998 491.78 287.648 491.78C288.278 491.78 288.998 491.69 289.478 491.48V493.79C288.848 494 288.098 494.15 287.168 494.15ZM301.959 494.3C297.579 494.3 294.399 490.97 294.399 486.5C294.399 482.09 297.309 478.7 302.019 478.7C306.759 478.7 309.549 482.54 309.219 487.19H297.009C297.099 489.92 299.259 491.96 301.989 491.96C303.879 491.96 305.409 491.24 306.339 489.44H308.979C308.259 492.08 305.769 494.3 301.959 494.3ZM301.929 480.98C299.799 480.98 297.609 482.21 297.129 485.15H306.489C306.009 482.36 304.179 480.98 301.929 480.98ZM322.122 494.3C317.922 494.3 314.772 490.79 314.772 486.5C314.772 482.21 317.922 478.7 322.122 478.7C324.402 478.7 326.412 479.87 327.402 481.31V471.5H329.982V494H327.402V491.69C326.412 493.13 324.402 494.3 322.122 494.3ZM322.512 491.93C325.512 491.93 327.612 489.53 327.612 486.5C327.612 483.47 325.512 481.07 322.512 481.07C319.482 481.07 317.382 483.47 317.382 486.5C317.382 489.53 319.482 491.93 322.512 491.93ZM46.3098 560.3C43.0698 560.3 40.4598 558.68 40.2198 555.65H42.8598C43.1898 557.48 44.8098 558.11 46.3398 558.11C47.9898 558.11 49.2198 557.45 49.2198 556.13C49.2198 554.93 48.5298 554.21 46.7298 553.73L44.5698 553.16C41.9598 552.47 40.6998 550.91 40.6998 548.75C40.6998 546.26 42.8898 544.7 45.8898 544.7C49.0698 544.7 51.1098 546.59 51.3498 548.99H48.7698C48.3798 547.67 47.2998 546.86 45.8898 546.86C44.4498 546.86 43.3098 547.55 43.3098 548.72C43.3098 549.83 43.9998 550.43 45.5898 550.88L47.9898 551.51C50.5098 552.14 51.8298 553.67 51.8298 555.95C51.8298 558.95 49.4298 560.3 46.3098 560.3ZM65.1437 560.3C60.5837 560.3 57.2837 556.82 57.2837 552.5C57.2837 548.18 60.5837 544.7 65.1437 544.7C69.6437 544.7 72.9737 548.18 72.9737 552.5C72.9737 556.82 69.6437 560.3 65.1437 560.3ZM65.1437 557.9C68.2637 557.9 70.3337 555.5 70.3337 552.5C70.3337 549.5 68.2637 547.1 65.1437 547.1C62.0237 547.1 59.9237 549.5 59.9237 552.5C59.9237 555.5 62.0237 557.9 65.1437 557.9ZM80.7027 560V547.37H77.5227V545H80.7027V541.91C80.7027 538.79 82.6527 537.32 85.2927 537.32C86.2227 537.32 86.9427 537.47 87.6327 537.71V539.99C87.1527 539.78 86.3727 539.69 85.7727 539.69C84.0927 539.69 83.2827 540.32 83.2827 542.24V545H87.1227V547.37H83.2827V560H80.7027ZM96.1227 560.15C93.5127 560.15 91.5027 558.68 91.5027 555.56V547.37H88.8027V545H91.5027V540.83H94.0827V545H98.4327V547.37H94.0827V555.23C94.0827 557.15 94.9227 557.78 96.5727 557.78C97.2027 557.78 97.9527 557.69 98.4327 557.48V559.79C97.7427 560 97.0527 560.15 96.1227 560.15ZM117.458 560L113.738 549.23L110.048 560H107.768L102.668 545H105.368L108.998 555.95L112.748 545H114.728L118.478 555.95L122.108 545H124.838L119.738 560H117.458ZM136.74 560.3C132.54 560.3 129.39 556.79 129.39 552.5C129.39 548.21 132.54 544.7 136.74 544.7C139.02 544.7 141.03 545.87 142.02 547.31V545H144.6V560H142.02V557.69C141.03 559.13 139.02 560.3 136.74 560.3ZM137.13 557.93C140.13 557.93 142.23 555.53 142.23 552.5C142.23 549.47 140.13 547.07 137.13 547.07C134.1 547.07 132 549.47 132 552.5C132 555.53 134.1 557.93 137.13 557.93ZM152.456 560V545H155.036V547.91C155.606 545.99 157.526 544.85 159.236 544.85C159.626 544.85 160.016 544.88 160.406 544.97V547.64C159.926 547.43 159.506 547.4 158.996 547.4C157.106 547.4 155.036 549.05 155.036 552.56V560H152.456ZM172.305 560.3C167.925 560.3 164.745 556.97 164.745 552.5C164.745 548.09 167.655 544.7 172.365 544.7C177.105 544.7 179.895 548.54 179.565 553.19H167.355C167.445 555.92 169.605 557.96 172.335 557.96C174.225 557.96 175.755 557.24 176.685 555.44H179.325C178.605 558.08 176.115 560.3 172.305 560.3ZM172.275 546.98C170.145 546.98 167.955 548.21 167.475 551.15H176.835C176.355 548.36 174.525 546.98 172.275 546.98ZM202.705 560.3C198.505 560.3 195.355 556.79 195.355 552.5C195.355 548.21 198.505 544.7 202.705 544.7C204.985 544.7 206.995 545.87 207.985 547.31V537.5H210.565V560H207.985V557.69C206.995 559.13 204.985 560.3 202.705 560.3ZM203.095 557.93C206.095 557.93 208.195 555.53 208.195 552.5C208.195 549.47 206.095 547.07 203.095 547.07C200.065 547.07 197.965 549.47 197.965 552.5C197.965 555.53 200.065 557.93 203.095 557.93ZM224.811 560.3C220.431 560.3 217.251 556.97 217.251 552.5C217.251 548.09 220.161 544.7 224.871 544.7C229.611 544.7 232.401 548.54 232.071 553.19H219.861C219.951 555.92 222.111 557.96 224.841 557.96C226.731 557.96 228.261 557.24 229.191 555.44H231.831C231.111 558.08 228.621 560.3 224.811 560.3ZM224.781 546.98C222.651 546.98 220.461 548.21 219.981 551.15H229.341C228.861 548.36 227.031 546.98 224.781 546.98ZM243.211 560L236.281 545H239.161L244.291 556.37L249.421 545H252.301L245.371 560H243.211ZM263.975 560.3C259.595 560.3 256.415 556.97 256.415 552.5C256.415 548.09 259.325 544.7 264.035 544.7C268.775 544.7 271.565 548.54 271.235 553.19H259.025C259.115 555.92 261.275 557.96 264.005 557.96C265.895 557.96 267.425 557.24 268.355 555.44H270.995C270.275 558.08 267.785 560.3 263.975 560.3ZM263.945 546.98C261.815 546.98 259.625 548.21 259.145 551.15H268.505C268.025 548.36 266.195 546.98 263.945 546.98ZM277.958 560V537.5H280.538V560H277.958ZM295.089 560.3C290.529 560.3 287.229 556.82 287.229 552.5C287.229 548.18 290.529 544.7 295.089 544.7C299.589 544.7 302.919 548.18 302.919 552.5C302.919 556.82 299.589 560.3 295.089 560.3ZM295.089 557.9C298.209 557.9 300.279 555.5 300.279 552.5C300.279 549.5 298.209 547.1 295.089 547.1C291.969 547.1 289.869 549.5 289.869 552.5C289.869 555.5 291.969 557.9 295.089 557.9ZM312.202 566.27H309.622V545H312.202V547.31C313.192 545.87 315.202 544.7 317.482 544.7C321.682 544.7 324.832 548.21 324.832 552.5C324.832 556.79 321.682 560.3 317.482 560.3C315.202 560.3 313.192 559.13 312.202 557.69V566.27ZM317.092 557.93C320.092 557.93 322.192 555.53 322.192 552.5C322.192 549.47 320.092 547.07 317.092 547.07C314.092 547.07 311.992 549.47 311.992 552.5C311.992 555.53 314.092 557.93 317.092 557.93ZM350.868 560V551.18C350.868 548.75 349.848 547.07 347.898 547.07C345.498 547.07 343.878 549.08 343.788 552.32V560H341.208V551.18C341.208 548.75 340.218 547.07 338.268 547.07C335.838 547.07 334.128 549.17 334.128 552.56V560H331.548V545H334.128V547.31C334.998 545.72 336.618 544.7 338.658 544.7C340.908 544.7 342.528 545.9 343.278 547.91C344.088 545.96 345.918 544.7 348.198 544.7C351.468 544.7 353.448 547.1 353.448 550.79V560H350.868ZM367.481 560.3C363.101 560.3 359.921 556.97 359.921 552.5C359.921 548.09 362.831 544.7 367.541 544.7C372.281 544.7 375.071 548.54 374.741 553.19H362.531C362.621 555.92 364.781 557.96 367.511 557.96C369.401 557.96 370.931 557.24 371.861 555.44H374.501C373.781 558.08 371.291 560.3 367.481 560.3ZM367.451 546.98C365.321 546.98 363.131 548.21 362.651 551.15H372.011C371.531 548.36 369.701 546.98 367.451 546.98ZM381.464 560V545H384.044V547.31C385.094 545.51 386.864 544.7 388.814 544.7C392.174 544.7 394.484 547.04 394.484 550.76V560H391.934V551.15C391.934 548.63 390.524 547.07 388.394 547.07C385.994 547.07 384.044 549.05 384.044 552.56V560H381.464ZM407.774 560.15C405.134 560.15 403.184 558.68 403.184 555.56V547.37H400.004V545H403.184V540.83H405.764V545H410.084V547.37H405.764V555.23C405.764 557.15 406.604 557.78 408.254 557.78C408.884 557.78 409.604 557.69 410.084 557.48V559.79C409.454 560 408.704 560.15 407.774 560.15Z" fill="black"/>
<path d="M1113.94 494.3C1110.67 494.3 1108.42 491.93 1108.42 488.21V479H1111V487.82C1111 490.34 1112.32 491.93 1114.39 491.93C1116.7 491.93 1118.56 489.89 1118.56 486.44V479H1121.14V494H1118.56V491.69C1117.57 493.46 1115.86 494.3 1113.94 494.3ZM1133.83 494.3C1130.59 494.3 1127.98 492.68 1127.74 489.65H1130.38C1130.71 491.48 1132.33 492.11 1133.86 492.11C1135.51 492.11 1136.74 491.45 1136.74 490.13C1136.74 488.93 1136.05 488.21 1134.25 487.73L1132.09 487.16C1129.48 486.47 1128.22 484.91 1128.22 482.75C1128.22 480.26 1130.41 478.7 1133.41 478.7C1136.59 478.7 1138.63 480.59 1138.87 482.99H1136.29C1135.9 481.67 1134.82 480.86 1133.41 480.86C1131.97 480.86 1130.83 481.55 1130.83 482.72C1130.83 483.83 1131.52 484.43 1133.11 484.88L1135.51 485.51C1138.03 486.14 1139.35 487.67 1139.35 489.95C1139.35 492.95 1136.95 494.3 1133.83 494.3ZM1152.4 494.3C1148.02 494.3 1144.84 490.97 1144.84 486.5C1144.84 482.09 1147.75 478.7 1152.46 478.7C1157.2 478.7 1159.99 482.54 1159.66 487.19H1147.45C1147.54 489.92 1149.7 491.96 1152.43 491.96C1154.32 491.96 1155.85 491.24 1156.78 489.44H1159.42C1158.7 492.08 1156.21 494.3 1152.4 494.3ZM1152.37 480.98C1150.24 480.98 1148.05 482.21 1147.57 485.15H1156.93C1156.45 482.36 1154.62 480.98 1152.37 480.98ZM1167.44 494V481.37H1164.26V479H1167.44V475.97C1167.44 472.85 1169.39 471.32 1172.03 471.32C1172.96 471.32 1173.68 471.47 1174.37 471.71V473.99C1173.89 473.78 1173.11 473.69 1172.51 473.69C1170.83 473.69 1170.02 474.32 1170.02 476.24V479H1174.37V481.37H1170.02V494H1167.44ZM1185.5 494.3C1182.23 494.3 1179.98 491.93 1179.98 488.21V479H1182.56V487.82C1182.56 490.34 1183.88 491.93 1185.95 491.93C1188.26 491.93 1190.12 489.89 1190.12 486.44V479H1192.7V494H1190.12V491.69C1189.13 493.46 1187.42 494.3 1185.5 494.3ZM1200.56 494V471.5H1203.14V494H1200.56ZM1222.59 474.98C1221.54 474.98 1220.73 474.2 1220.73 473.15C1220.73 472.16 1221.54 471.32 1222.59 471.32C1223.64 471.32 1224.39 472.16 1224.39 473.15C1224.39 474.2 1223.64 474.98 1222.59 474.98ZM1221.27 494V479H1223.85V494H1221.27ZM1231.74 494V479H1234.32V481.31C1235.37 479.51 1237.14 478.7 1239.09 478.7C1242.45 478.7 1244.76 481.04 1244.76 484.76V494H1242.21V485.15C1242.21 482.63 1240.8 481.07 1238.67 481.07C1236.27 481.07 1234.32 483.05 1234.32 486.56V494H1231.74ZM1258.05 494.15C1255.41 494.15 1253.46 492.68 1253.46 489.56V481.37H1250.28V479H1253.46V474.83H1256.04V479H1260.36V481.37H1256.04V489.23C1256.04 491.15 1256.88 491.78 1258.53 491.78C1259.16 491.78 1259.88 491.69 1260.36 491.48V493.79C1259.73 494 1258.98 494.15 1258.05 494.15ZM1272.84 494.3C1268.46 494.3 1265.28 490.97 1265.28 486.5C1265.28 482.09 1268.19 478.7 1272.9 478.7C1277.64 478.7 1280.43 482.54 1280.1 487.19H1267.89C1267.98 489.92 1270.14 491.96 1272.87 491.96C1274.76 491.96 1276.29 491.24 1277.22 489.44H1279.86C1279.14 492.08 1276.65 494.3 1272.84 494.3ZM1272.81 480.98C1270.68 480.98 1268.49 482.21 1268.01 485.15H1277.37C1276.89 482.36 1275.06 480.98 1272.81 480.98ZM1293.43 500.57C1289.41 500.57 1286.65 498.38 1286.17 495.38H1288.69C1289.38 497.39 1291.06 498.29 1293.49 498.29C1296.22 498.29 1298.23 496.49 1298.23 493.1V491.33C1297.18 492.86 1295.26 493.97 1293.01 493.97C1288.81 493.97 1285.66 490.64 1285.66 486.32C1285.66 482.06 1288.81 478.7 1293.01 478.7C1295.26 478.7 1297.18 479.78 1298.23 481.31V479H1300.81V493.07C1300.81 498.08 1297.51 500.57 1293.43 500.57ZM1293.37 491.57C1296.37 491.57 1298.44 489.35 1298.44 486.32C1298.44 483.32 1296.37 481.07 1293.37 481.07C1290.37 481.07 1288.3 483.32 1288.3 486.32C1288.3 489.35 1290.37 491.57 1293.37 491.57ZM1308.66 494V479H1311.24V481.91C1311.81 479.99 1313.73 478.85 1315.44 478.85C1315.83 478.85 1316.22 478.88 1316.61 478.97V481.64C1316.13 481.43 1315.71 481.4 1315.2 481.4C1313.31 481.4 1311.24 483.05 1311.24 486.56V494H1308.66ZM1328.33 494.3C1324.13 494.3 1320.98 490.79 1320.98 486.5C1320.98 482.21 1324.13 478.7 1328.33 478.7C1330.61 478.7 1332.62 479.87 1333.61 481.31V479H1336.19V494H1333.61V491.69C1332.62 493.13 1330.61 494.3 1328.33 494.3ZM1328.72 491.93C1331.72 491.93 1333.82 489.53 1333.82 486.5C1333.82 483.47 1331.72 481.07 1328.72 481.07C1325.69 481.07 1323.59 483.47 1323.59 486.5C1323.59 489.53 1325.69 491.93 1328.72 491.93ZM1349.87 494.15C1347.23 494.15 1345.28 492.68 1345.28 489.56V481.37H1342.1V479H1345.28V474.83H1347.86V479H1352.18V481.37H1347.86V489.23C1347.86 491.15 1348.7 491.78 1350.35 491.78C1350.98 491.78 1351.7 491.69 1352.18 491.48V493.79C1351.55 494 1350.8 494.15 1349.87 494.15ZM1359.79 474.98C1358.74 474.98 1357.93 474.2 1357.93 473.15C1357.93 472.16 1358.74 471.32 1359.79 471.32C1360.84 471.32 1361.59 472.16 1361.59 473.15C1361.59 474.2 1360.84 474.98 1359.79 474.98ZM1358.47 494V479H1361.05V494H1358.47ZM1375.61 494.3C1371.05 494.3 1367.75 490.82 1367.75 486.5C1367.75 482.18 1371.05 478.7 1375.61 478.7C1380.11 478.7 1383.44 482.18 1383.44 486.5C1383.44 490.82 1380.11 494.3 1375.61 494.3ZM1375.61 491.9C1378.73 491.9 1380.8 489.5 1380.8 486.5C1380.8 483.5 1378.73 481.1 1375.61 481.1C1372.49 481.1 1370.39 483.5 1370.39 486.5C1370.39 489.5 1372.49 491.9 1375.61 491.9ZM1390.14 494V479H1392.72V481.31C1393.77 479.51 1395.54 478.7 1397.49 478.7C1400.85 478.7 1403.16 481.04 1403.16 484.76V494H1400.61V485.15C1400.61 482.63 1399.2 481.07 1397.07 481.07C1394.67 481.07 1392.72 483.05 1392.72 486.56V494H1390.14ZM1415.64 494.3C1412.4 494.3 1409.79 492.68 1409.55 489.65H1412.19C1412.52 491.48 1414.14 492.11 1415.67 492.11C1417.32 492.11 1418.55 491.45 1418.55 490.13C1418.55 488.93 1417.86 488.21 1416.06 487.73L1413.9 487.16C1411.29 486.47 1410.03 484.91 1410.03 482.75C1410.03 480.26 1412.22 478.7 1415.22 478.7C1418.4 478.7 1420.44 480.59 1420.68 482.99H1418.1C1417.71 481.67 1416.63 480.86 1415.22 480.86C1413.78 480.86 1412.64 481.55 1412.64 482.72C1412.64 483.83 1413.33 484.43 1414.92 484.88L1417.32 485.51C1419.84 486.14 1421.16 487.67 1421.16 489.95C1421.16 492.95 1418.76 494.3 1415.64 494.3ZM1444.71 494.3C1440.15 494.3 1436.85 490.82 1436.85 486.5C1436.85 482.18 1440.15 478.7 1444.71 478.7C1449.21 478.7 1452.54 482.18 1452.54 486.5C1452.54 490.82 1449.21 494.3 1444.71 494.3ZM1444.71 491.9C1447.83 491.9 1449.9 489.5 1449.9 486.5C1449.9 483.5 1447.83 481.1 1444.71 481.1C1441.59 481.1 1439.49 483.5 1439.49 486.5C1439.49 489.5 1441.59 491.9 1444.71 491.9ZM1460.26 494V481.37H1457.08V479H1460.26V475.97C1460.26 472.85 1462.21 471.32 1464.85 471.32C1465.78 471.32 1466.5 471.47 1467.19 471.71V473.99C1466.71 473.78 1465.93 473.69 1465.33 473.69C1463.65 473.69 1462.84 474.32 1462.84 476.24V479H1467.19V481.37H1462.84V494H1460.26ZM1082.98 560L1092.4 538.7H1094.71L1104.16 560H1101.25L1098.49 553.79H1088.56L1085.86 560H1082.98ZM1093.51 542.48L1089.67 551.27H1097.38L1093.51 542.48ZM1110.15 560V538.7H1112.94V560H1110.15ZM1132.76 540.98C1131.71 540.98 1130.9 540.2 1130.9 539.15C1130.9 538.16 1131.71 537.32 1132.76 537.32C1133.81 537.32 1134.56 538.16 1134.56 539.15C1134.56 540.2 1133.81 540.98 1132.76 540.98ZM1131.44 560V545H1134.02V560H1131.44ZM1141.91 560V545H1144.49V547.31C1145.54 545.51 1147.31 544.7 1149.26 544.7C1152.62 544.7 1154.93 547.04 1154.93 550.76V560H1152.38V551.15C1152.38 548.63 1150.97 547.07 1148.84 547.07C1146.44 547.07 1144.49 549.05 1144.49 552.56V560H1141.91ZM1168.22 560.15C1165.58 560.15 1163.63 558.68 1163.63 555.56V547.37H1160.45V545H1163.63V540.83H1166.21V545H1170.53V547.37H1166.21V555.23C1166.21 557.15 1167.05 557.78 1168.7 557.78C1169.33 557.78 1170.05 557.69 1170.53 557.48V559.79C1169.9 560 1169.15 560.15 1168.22 560.15ZM1183.28 560.3C1178.72 560.3 1175.42 556.82 1175.42 552.5C1175.42 548.18 1178.72 544.7 1183.28 544.7C1187.78 544.7 1191.11 548.18 1191.11 552.5C1191.11 556.82 1187.78 560.3 1183.28 560.3ZM1183.28 557.9C1186.4 557.9 1188.47 555.5 1188.47 552.5C1188.47 549.5 1186.4 547.1 1183.28 547.1C1180.16 547.1 1178.06 549.5 1178.06 552.5C1178.06 555.5 1180.16 557.9 1183.28 557.9ZM1214.23 560.3C1210.03 560.3 1206.88 556.79 1206.88 552.5C1206.88 548.21 1210.03 544.7 1214.23 544.7C1216.51 544.7 1218.52 545.87 1219.51 547.31V537.5H1222.09V560H1219.51V557.69C1218.52 559.13 1216.51 560.3 1214.23 560.3ZM1214.62 557.93C1217.62 557.93 1219.72 555.53 1219.72 552.5C1219.72 549.47 1217.62 547.07 1214.62 547.07C1211.59 547.07 1209.49 549.47 1209.49 552.5C1209.49 555.53 1211.59 557.93 1214.62 557.93ZM1236.34 560.3C1231.96 560.3 1228.78 556.97 1228.78 552.5C1228.78 548.09 1231.69 544.7 1236.4 544.7C1241.14 544.7 1243.93 548.54 1243.6 553.19H1231.39C1231.48 555.92 1233.64 557.96 1236.37 557.96C1238.26 557.96 1239.79 557.24 1240.72 555.44H1243.36C1242.64 558.08 1240.15 560.3 1236.34 560.3ZM1236.31 546.98C1234.18 546.98 1231.99 548.21 1231.51 551.15H1240.87C1240.39 548.36 1238.56 546.98 1236.31 546.98ZM1255.15 560.3C1251.91 560.3 1249.3 558.68 1249.06 555.65H1251.7C1252.03 557.48 1253.65 558.11 1255.18 558.11C1256.83 558.11 1258.06 557.45 1258.06 556.13C1258.06 554.93 1257.37 554.21 1255.57 553.73L1253.41 553.16C1250.8 552.47 1249.54 550.91 1249.54 548.75C1249.54 546.26 1251.73 544.7 1254.73 544.7C1257.91 544.7 1259.95 546.59 1260.19 548.99H1257.61C1257.22 547.67 1256.14 546.86 1254.73 546.86C1253.29 546.86 1252.15 547.55 1252.15 548.72C1252.15 549.83 1252.84 550.43 1254.43 550.88L1256.83 551.51C1259.35 552.14 1260.67 553.67 1260.67 555.95C1260.67 558.95 1258.27 560.3 1255.15 560.3ZM1268.64 540.98C1267.59 540.98 1266.78 540.2 1266.78 539.15C1266.78 538.16 1267.59 537.32 1268.64 537.32C1269.69 537.32 1270.44 538.16 1270.44 539.15C1270.44 540.2 1269.69 540.98 1268.64 540.98ZM1267.32 560V545H1269.9V560H1267.32ZM1284.39 566.57C1280.37 566.57 1277.61 564.38 1277.13 561.38H1279.65C1280.34 563.39 1282.02 564.29 1284.45 564.29C1287.18 564.29 1289.19 562.49 1289.19 559.1V557.33C1288.14 558.86 1286.22 559.97 1283.97 559.97C1279.77 559.97 1276.62 556.64 1276.62 552.32C1276.62 548.06 1279.77 544.7 1283.97 544.7C1286.22 544.7 1288.14 545.78 1289.19 547.31V545H1291.77V559.07C1291.77 564.08 1288.47 566.57 1284.39 566.57ZM1284.33 557.57C1287.33 557.57 1289.4 555.35 1289.4 552.32C1289.4 549.32 1287.33 547.07 1284.33 547.07C1281.33 547.07 1279.26 549.32 1279.26 552.32C1279.26 555.35 1281.33 557.57 1284.33 557.57ZM1299.63 560V545H1302.21V547.31C1303.26 545.51 1305.03 544.7 1306.98 544.7C1310.34 544.7 1312.65 547.04 1312.65 550.76V560H1310.1V551.15C1310.1 548.63 1308.69 547.07 1306.56 547.07C1304.16 547.07 1302.21 549.05 1302.21 552.56V560H1299.63ZM1342.73 560L1339.01 549.23L1335.32 560H1333.04L1327.94 545H1330.64L1334.27 555.95L1338.02 545H1340L1343.75 555.95L1347.38 545H1350.11L1345.01 560H1342.73ZM1362.49 560.3C1357.93 560.3 1354.63 556.82 1354.63 552.5C1354.63 548.18 1357.93 544.7 1362.49 544.7C1366.99 544.7 1370.32 548.18 1370.32 552.5C1370.32 556.82 1366.99 560.3 1362.49 560.3ZM1362.49 557.9C1365.61 557.9 1367.68 555.5 1367.68 552.5C1367.68 549.5 1365.61 547.1 1362.49 547.1C1359.37 547.1 1357.27 549.5 1357.27 552.5C1357.27 555.5 1359.37 557.9 1362.49 557.9ZM1377.02 560V545H1379.6V547.91C1380.17 545.99 1382.09 544.85 1383.8 544.85C1384.19 544.85 1384.58 544.88 1384.97 544.97V547.64C1384.49 547.43 1384.07 547.4 1383.56 547.4C1381.67 547.4 1379.6 549.05 1379.6 552.56V560H1377.02ZM1401.72 560L1393.59 552.5V560H1391.01V537.5H1393.59V550.85L1400.13 545H1403.55L1396.17 551.63L1405.2 560H1401.72ZM1411.44 560V547.37H1408.26V545H1411.44V541.97C1411.44 538.85 1413.39 537.32 1416.03 537.32C1416.96 537.32 1417.68 537.47 1418.37 537.71V539.99C1417.89 539.78 1417.11 539.69 1416.51 539.69C1414.83 539.69 1414.02 540.32 1414.02 542.24V545H1418.37V547.37H1414.02V560H1411.44ZM1421.19 560V537.5H1423.77V560H1421.19ZM1438.3 560.3C1433.74 560.3 1430.44 556.82 1430.44 552.5C1430.44 548.18 1433.74 544.7 1438.3 544.7C1442.8 544.7 1446.13 548.18 1446.13 552.5C1446.13 556.82 1442.8 560.3 1438.3 560.3ZM1438.3 557.9C1441.42 557.9 1443.49 555.5 1443.49 552.5C1443.49 549.5 1441.42 547.1 1438.3 547.1C1435.18 547.1 1433.08 549.5 1433.08 552.5C1433.08 555.5 1435.18 557.9 1438.3 557.9ZM1465.49 560L1461.77 549.23L1458.08 560H1455.8L1450.7 545H1453.4L1457.03 555.95L1460.78 545H1462.76L1466.51 555.95L1470.14 545H1472.87L1467.77 560H1465.49ZM1483.45 560.3C1480.21 560.3 1477.6 558.68 1477.36 555.65H1480C1480.33 557.48 1481.95 558.11 1483.48 558.11C1485.13 558.11 1486.36 557.45 1486.36 556.13C1486.36 554.93 1485.67 554.21 1483.87 553.73L1481.71 553.16C1479.1 552.47 1477.84 550.91 1477.84 548.75C1477.84 546.26 1480.03 544.7 1483.03 544.7C1486.21 544.7 1488.25 546.59 1488.49 548.99H1485.91C1485.52 547.67 1484.44 546.86 1483.03 546.86C1481.59 546.86 1480.45 547.55 1480.45 548.72C1480.45 549.83 1481.14 550.43 1482.73 550.88L1485.13 551.51C1487.65 552.14 1488.97 553.67 1488.97 555.95C1488.97 558.95 1486.57 560.3 1483.45 560.3Z" fill="black"/>
<line x1="239.891" y1="421.902" x2="518.402" y2="143.391" stroke="black"/>
<line x1="970.354" y1="143.646" x2="1248.86" y2="422.158" stroke="black"/>
<line x1="495" y1="515.5" x2="995" y2="515.5" stroke="black"/>
</svg>
