<svg width="64" height="64" viewBox="0 0 64 64" fill="none" xmlns="http://www.w3.org/2000/svg">
<path d="M0 25.6C0 16.6392 0 12.1587 1.7439 8.73615C3.27787 5.72556 5.72556 3.27787 8.73615 1.7439C12.1587 0 16.6392 0 25.6 0H38.4C47.3608 0 51.8413 0 55.2638 1.7439C58.2744 3.27787 60.7221 5.72556 62.2561 8.73615C64 12.1587 64 16.6392 64 25.6V38.4C64 47.3608 64 51.8413 62.2561 55.2638C60.7221 58.2744 58.2744 60.7221 55.2638 62.2561C51.8413 64 47.3608 64 38.4 64H25.6C16.6392 64 12.1587 64 8.73615 62.2561C5.72556 60.7221 3.27787 58.2744 1.7439 55.2638C0 51.8413 0 47.3608 0 38.4V25.6Z" fill="url(#paint0_linear_332_29448)"/>
<g filter="url(#filter0_d_332_29448)">
<path fill-rule="evenodd" clip-rule="evenodd" d="M44.5536 21.2069C44.0814 21.1683 43.4609 21.167 42.5 21.167H30.3333C29.4128 21.167 28.6666 20.4208 28.6666 19.5003C28.6666 18.5799 29.4128 17.8337 30.3333 17.8337L42.5642 17.8337C43.4428 17.8336 44.2007 17.8336 44.825 17.8846C45.4839 17.9385 46.1393 18.0573 46.7699 18.3786C47.7107 18.858 48.4756 19.6229 48.955 20.5637C49.2763 21.1944 49.3952 21.8497 49.449 22.5086C49.5 23.1329 49.5 23.8908 49.5 24.7694V27.0537C49.5 27.7847 49.5 28.4156 49.4644 28.9377C49.4269 29.4874 49.3444 30.0372 49.1194 30.5804C48.6119 31.8056 47.6385 32.7789 46.4134 33.2864C45.8702 33.5114 45.3203 33.5939 44.7706 33.6314C44.2485 33.6671 43.6177 33.667 42.8866 33.667H42.8333C41.9128 33.667 41.1666 32.9208 41.1666 32.0003C41.1666 31.0799 41.9128 30.3337 42.8333 30.3337C43.6327 30.3337 44.1487 30.3328 44.5437 30.3058C44.9237 30.2799 45.0684 30.2355 45.1378 30.2068C45.5462 30.0377 45.8706 29.7132 46.0398 29.3048C46.0685 29.2355 46.1129 29.0907 46.1388 28.7107C46.1657 28.3158 46.1666 27.7997 46.1666 27.0003V24.8337C46.1666 23.8728 46.1653 23.2523 46.1268 22.7801C46.0898 22.3273 46.027 22.1594 45.985 22.077C45.8252 21.7634 45.5702 21.5085 45.2566 21.3487C45.1742 21.3067 45.0064 21.2439 44.5536 21.2069ZM21.1133 30.3337L21.1666 30.3337C22.0871 30.3337 22.8333 31.0799 22.8333 32.0003C22.8333 32.9208 22.0871 33.667 21.1666 33.667C20.3673 33.667 19.8512 33.6679 19.4562 33.6949C19.0762 33.7208 18.9315 33.7652 18.8622 33.7939C18.4538 33.963 18.1293 34.2875 17.9602 34.6959C17.9315 34.7652 17.8871 34.91 17.8612 35.2899C17.8342 35.6849 17.8333 36.201 17.8333 37.0003V39.167C17.8333 40.1279 17.8346 40.7484 17.8732 41.2206C17.9102 41.6734 17.973 41.8413 18.015 41.9237C18.1748 42.2373 18.4297 42.4922 18.7433 42.652C18.8257 42.694 18.9936 42.7568 19.4464 42.7938C19.9186 42.8324 20.5391 42.8337 21.5 42.8337H33.6666C34.5871 42.8337 35.3333 43.5799 35.3333 44.5003C35.3333 45.4208 34.5871 46.167 33.6666 46.167H21.4357C20.5571 46.167 19.7992 46.1671 19.1749 46.1161C18.516 46.0622 17.8607 45.9434 17.23 45.622C16.2892 45.1427 15.5243 44.3778 15.0449 43.437C14.7236 42.8063 14.6048 42.151 14.5509 41.4921C14.4999 40.8678 14.4999 40.1098 14.5 39.2313L14.5 36.947C14.5 36.216 14.4999 35.5851 14.5356 35.063C14.5731 34.5133 14.6556 33.9635 14.8806 33.4203C15.3881 32.1951 16.3614 31.2218 17.5866 30.7143C18.1298 30.4893 18.6796 30.4068 19.2293 30.3693C19.7514 30.3336 20.3822 30.3337 21.1133 30.3337Z" fill="url(#paint1_linear_332_29448)" shape-rendering="crispEdges"/>
<path fill-rule="evenodd" clip-rule="evenodd" d="M29.1281 26.167C29.1411 26.167 29.154 26.167 29.1666 26.167H34.8333C34.846 26.167 34.8589 26.167 34.8719 26.167C35.0704 26.1669 35.3075 26.1668 35.5164 26.1839C35.7584 26.2037 36.105 26.2544 36.4683 26.4395C36.9387 26.6792 37.3211 27.0616 37.5608 27.532C37.7459 27.8953 37.7966 28.2419 37.8164 28.484C37.8335 28.6928 37.8334 28.9299 37.8333 29.1284C37.8333 29.1415 37.8333 29.1543 37.8333 29.167V34.8337C37.8333 34.8464 37.8333 34.8592 37.8333 34.8722C37.8334 35.0708 37.8335 35.3079 37.8164 35.5167C37.7966 35.7588 37.7459 36.1054 37.5608 36.4687C37.3211 36.9391 36.9387 37.3215 36.4683 37.5612C36.105 37.7463 35.7584 37.797 35.5164 37.8168C35.3075 37.8339 35.0704 37.8338 34.8719 37.8337C34.8589 37.8337 34.846 37.8337 34.8333 37.8337H29.1666C29.154 37.8337 29.1411 37.8337 29.1281 37.8337C28.9296 37.8338 28.6925 37.8339 28.4836 37.8168C28.2416 37.797 27.8949 37.7463 27.5317 37.5612C27.0613 37.3215 26.6788 36.9391 26.4391 36.4687C26.254 36.1054 26.2033 35.7588 26.1835 35.5167C26.1665 35.3079 26.1666 35.0708 26.1666 34.8722C26.1666 34.8592 26.1666 34.8464 26.1666 34.8337V29.167C26.1666 29.1543 26.1666 29.1415 26.1666 29.1284C26.1666 28.9299 26.1665 28.6928 26.1835 28.484C26.2033 28.2419 26.254 27.8953 26.4391 27.532C26.6788 27.0616 27.0613 26.6792 27.5317 26.4395C27.8949 26.2544 28.2416 26.2037 28.4836 26.1839C28.6925 26.1668 28.9296 26.1669 29.1281 26.167Z" fill="url(#paint2_linear_332_29448)" shape-rendering="crispEdges"/>
<path fill-rule="evenodd" clip-rule="evenodd" d="M41.6281 38.667C41.6411 38.667 41.654 38.667 41.6666 38.667H47.3333C47.346 38.667 47.3589 38.667 47.3719 38.667C47.5704 38.6669 47.8075 38.6668 48.0164 38.6839C48.2584 38.7037 48.605 38.7544 48.9683 38.9395C49.4387 39.1792 49.8211 39.5616 50.0608 40.032C50.2459 40.3953 50.2966 40.7419 50.3164 40.984C50.3335 41.1928 50.3334 41.4299 50.3333 41.6284C50.3333 41.6415 50.3333 41.6543 50.3333 41.667V47.3337C50.3333 47.3464 50.3333 47.3592 50.3333 47.3722C50.3334 47.5708 50.3335 47.8079 50.3164 48.0167C50.2966 48.2588 50.2459 48.6054 50.0608 48.9687C49.8211 49.4391 49.4387 49.8215 48.9683 50.0612C48.605 50.2463 48.2584 50.297 48.0164 50.3168C47.8075 50.3339 47.5704 50.3338 47.3719 50.3337C47.3589 50.3337 47.346 50.3337 47.3333 50.3337H41.6666C41.654 50.3337 41.6411 50.3337 41.6281 50.3337C41.4296 50.3338 41.1925 50.3339 40.9836 50.3168C40.7416 50.297 40.3949 50.2463 40.0317 50.0612C39.5613 49.8215 39.1788 49.4391 38.9391 48.9687C38.754 48.6054 38.7033 48.2588 38.6835 48.0167C38.6665 47.8079 38.6666 47.5708 38.6666 47.3722C38.6666 47.3592 38.6666 47.3464 38.6666 47.3337V41.667C38.6666 41.6543 38.6666 41.6415 38.6666 41.6284C38.6666 41.4299 38.6665 41.1928 38.6835 40.984C38.7033 40.7419 38.754 40.3953 38.9391 40.032C39.1788 39.5616 39.5613 39.1792 40.0317 38.9395C40.3949 38.7544 40.7416 38.7037 40.9836 38.6839C41.1925 38.6668 41.4296 38.6669 41.6281 38.667Z" fill="url(#paint3_linear_332_29448)" shape-rendering="crispEdges"/>
<path fill-rule="evenodd" clip-rule="evenodd" d="M16.6281 13.667C16.6411 13.667 16.654 13.667 16.6666 13.667H22.3333C22.346 13.667 22.3589 13.667 22.3719 13.667C22.5704 13.6669 22.8075 13.6668 23.0164 13.6839C23.2584 13.7037 23.605 13.7544 23.9683 13.9395C24.4387 14.1792 24.8211 14.5616 25.0608 15.032C25.2459 15.3953 25.2966 15.7419 25.3164 15.984C25.3335 16.1928 25.3334 16.4299 25.3333 16.6284C25.3333 16.6415 25.3333 16.6543 25.3333 16.667V22.3337C25.3333 22.3464 25.3333 22.3592 25.3333 22.3722C25.3334 22.5708 25.3335 22.8079 25.3164 23.0167C25.2966 23.2588 25.2459 23.6054 25.0608 23.9687C24.8211 24.4391 24.4387 24.8215 23.9683 25.0612C23.605 25.2463 23.2584 25.297 23.0164 25.3168C22.8075 25.3339 22.5704 25.3338 22.3719 25.3337C22.3589 25.3337 22.346 25.3337 22.3333 25.3337H16.6666C16.654 25.3337 16.6411 25.3337 16.6281 25.3337C16.4296 25.3338 16.1925 25.3339 15.9836 25.3168C15.7416 25.297 15.3949 25.2463 15.0317 25.0612C14.5613 24.8215 14.1788 24.4391 13.9391 23.9687C13.754 23.6054 13.7033 23.2588 13.6835 23.0167C13.6665 22.8079 13.6666 22.5708 13.6666 22.3722C13.6666 22.3592 13.6666 22.3464 13.6666 22.3337V16.667C13.6666 16.6543 13.6666 16.6415 13.6666 16.6284C13.6666 16.4299 13.6665 16.1928 13.6835 15.984C13.7033 15.7419 13.754 15.3953 13.9391 15.032C14.1788 14.5616 14.5613 14.1792 15.0317 13.9395C15.3949 13.7544 15.7416 13.7037 15.9836 13.6839C16.1925 13.6668 16.4296 13.6669 16.6281 13.667Z" fill="url(#paint4_linear_332_29448)" shape-rendering="crispEdges"/>
</g>
<defs>
<filter id="filter0_d_332_29448" x="13.1666" y="13.417" width="37.6667" height="37.667" filterUnits="userSpaceOnUse" color-interpolation-filters="sRGB">
<feFlood flood-opacity="0" result="BackgroundImageFix"/>
<feColorMatrix in="SourceAlpha" type="matrix" values="0 0 0 0 0 0 0 0 0 0 0 0 0 0 0 0 0 0 127 0" result="hardAlpha"/>
<feOffset dy="0.25"/>
<feGaussianBlur stdDeviation="0.25"/>
<feComposite in2="hardAlpha" operator="out"/>
<feColorMatrix type="matrix" values="0 0 0 0 0 0 0 0 0 0 0 0 0 0 0 0 0 0 0.2 0"/>
<feBlend mode="normal" in2="BackgroundImageFix" result="effect1_dropShadow_332_29448"/>
<feBlend mode="normal" in="SourceGraphic" in2="effect1_dropShadow_332_29448" result="shape"/>
</filter>
<linearGradient id="paint0_linear_332_29448" x1="32" y1="0" x2="32" y2="64" gradientUnits="userSpaceOnUse">
<stop stop-color="#D8D8D8"/>
<stop offset="1" stop-color="#A6A6A6"/>
</linearGradient>
<linearGradient id="paint1_linear_332_29448" x1="32" y1="13.667" x2="32" y2="50.3337" gradientUnits="userSpaceOnUse">
<stop stop-color="white"/>
<stop offset="1" stop-color="white" stop-opacity="0.7"/>
</linearGradient>
<linearGradient id="paint2_linear_332_29448" x1="32" y1="13.667" x2="32" y2="50.3337" gradientUnits="userSpaceOnUse">
<stop stop-color="white"/>
<stop offset="1" stop-color="white" stop-opacity="0.7"/>
</linearGradient>
<linearGradient id="paint3_linear_332_29448" x1="32" y1="13.667" x2="32" y2="50.3337" gradientUnits="userSpaceOnUse">
<stop stop-color="white"/>
<stop offset="1" stop-color="white" stop-opacity="0.7"/>
</linearGradient>
<linearGradient id="paint4_linear_332_29448" x1="32" y1="13.667" x2="32" y2="50.3337" gradientUnits="userSpaceOnUse">
<stop stop-color="white"/>
<stop offset="1" stop-color="white" stop-opacity="0.7"/>
</linearGradient>
</defs>
</svg>
