<svg width="180" height="40" viewBox="0 0 180 40" fill="none" xmlns="http://www.w3.org/2000/svg">
<g id="Company logo">
<path id="Union" fill-rule="evenodd" clip-rule="evenodd" d="M29.8193 16.7264L37.6548 11.728L45.4902 16.6994L37.6548 21.6979L45.4497 26.7234L53.2852 21.7249L45.4497 16.7264L53.2852 11.728L45.4497 6.72949L37.6548 11.728L29.8193 6.72949L21.9839 11.728L29.8193 16.6994L21.9839 21.6979L29.8193 26.7234L37.6548 21.7249L29.8193 16.7264ZM37.6143 23.3325L29.7788 28.331L37.6143 33.3295L45.4497 28.331L37.6143 23.3325ZM65.7678 11.7279H59.4319V28.3174H65.8894C70.0233 28.3174 73.144 25.8992 73.144 20.5225V19.4012C73.144 14.065 69.8072 11.7279 65.7678 11.7279ZM62.9714 25.2913V14.7405H65.5652C67.9023 14.7405 69.5235 16.24 69.5235 19.5768V20.4549C69.5235 23.7918 67.9834 25.2913 65.6868 25.2913H62.9714ZM77.8588 14.9026H75.0758V28.3579H78.5748V22.1841C78.5748 19.3472 79.2772 18.3475 82.1547 18.3475H83.6138V14.7675H82.7357C80.2364 14.7675 78.8585 15.9023 78.3181 18.0233L77.8588 14.9026ZM84.3163 21.5222V21.9005C84.3163 26.3315 86.775 28.6552 91.1115 28.6957C95.1913 28.6957 97.9067 26.318 97.9067 21.9005V21.5222C97.9067 17.0236 95.1103 14.5649 91.1115 14.5649C87.1938 14.5649 84.3163 17.0236 84.3163 21.5222ZM94.3267 21.5222V21.8599C94.3267 24.2781 93.0703 25.6155 91.0709 25.6561C89.0716 25.6561 87.8152 24.2781 87.8152 21.8599V21.5222C87.8152 18.9014 89.1121 17.5234 91.0709 17.5234C93.0703 17.5234 94.3267 19.023 94.3267 21.5222ZM102.662 14.9026H99.744L99.7035 33.0052H103.121V26.2099C103.837 27.75 105.296 28.7092 107.417 28.7092C110.592 28.7092 113.091 26.3721 113.091 21.9545V21.5762C113.091 17.0236 110.835 14.5649 107.417 14.5649C105.202 14.5649 103.702 15.7402 103 17.4424L102.662 14.9026ZM109.538 21.5627V21.8599C109.538 24.3727 108.295 25.6561 106.283 25.6966C104.324 25.6966 103.067 24.197 103.067 21.8194V21.5627C103.067 19.0635 104.364 17.5639 106.323 17.5639C108.16 17.5639 109.538 18.8879 109.538 21.5627ZM117.968 28.3309L118.265 25.8722C118.968 27.6149 120.427 28.6551 122.683 28.7092C126.101 28.7092 128.357 26.1559 128.357 21.6978V21.279C128.357 16.8209 125.979 14.6054 122.764 14.5649C120.643 14.5649 119.143 15.524 118.387 17.2802V10.404H114.969V28.3309H117.968ZM124.763 21.3601V21.6978C124.763 24.3727 123.561 25.6561 121.508 25.6561C119.589 25.6561 118.292 24.1971 118.292 21.6978V21.4006C118.292 19.0635 119.63 17.5234 121.548 17.5234C123.426 17.5234 124.763 18.9014 124.763 21.3601ZM129.856 21.5222V21.9005C129.856 26.3315 132.315 28.6552 136.652 28.6957C140.691 28.6957 143.447 26.318 143.447 21.9005V21.5222C143.447 17.0236 140.65 14.5649 136.652 14.5649C132.734 14.5649 129.856 17.0236 129.856 21.5222ZM139.894 21.5222V21.8599C139.894 24.2781 138.651 25.6155 136.638 25.6561C134.639 25.6561 133.382 24.2781 133.382 21.8599V21.5222C133.382 18.9014 134.679 17.5234 136.638 17.5234C138.638 17.5234 139.894 19.023 139.894 21.5222ZM143.312 14.9026L148.027 21.3601L142.907 28.3309H147.04L150.039 23.8728L153.12 28.3309H157.078L152.039 21.3195L156.821 14.9026H152.822L150.066 18.9419L147.351 14.9026H143.312Z" fill="#D0D5DD"/>
</g>
</svg>
