<svg width="180" height="40" viewBox="0 0 180 40" fill="none" xmlns="http://www.w3.org/2000/svg">
<g id="Company logo">
<g id="Vector">
<path d="M50.0776 5.72949V27.7836L52.8993 27.7946V17.2926H59.682V14.5139H52.8884V8.4972H61.7331V5.72949H50.0776ZM66.7904 10.2147C67.2797 10.2147 67.7489 10.0188 68.0949 9.67001C68.4409 9.32124 68.6353 8.84821 68.6353 8.35498C68.6353 7.86175 68.4409 7.38873 68.0949 7.03996C67.7489 6.69119 67.2797 6.49526 66.7904 6.49526C66.3011 6.49526 65.8318 6.69119 65.4858 7.03996C65.1398 7.38873 64.9455 7.86175 64.9455 8.35498C64.9455 8.84821 65.1398 9.32124 65.4858 9.67001C65.8318 10.0188 66.3011 10.2147 66.7904 10.2147ZM65.3687 12.9824V27.7946H68.1903V12.9824H65.3687Z" fill="#D0D5DD"/>
<path fill-rule="evenodd" clip-rule="evenodd" d="M78.6195 12.5558C74.8863 12.5558 72.2817 15.7392 72.2817 19.5243C72.2817 23.3093 74.8863 26.4927 78.6195 26.4927C80.3342 26.4927 81.745 25.8364 82.776 24.7424V26.7115C82.7831 27.2999 82.6746 27.8839 82.4565 28.4297C82.2384 28.9755 81.9152 29.4723 81.5054 29.8914C81.0957 30.3105 80.6077 30.6436 80.0695 30.8714C79.5313 31.0992 78.9536 31.2172 78.3699 31.2186C77.4691 31.2186 76.5792 30.8686 75.8738 30.3653L74.463 32.8267C75.5539 33.5376 76.8149 33.9384 78.113 33.987C79.4111 34.0356 80.6981 33.7301 81.8383 33.1028C82.9785 32.4754 83.9296 31.5495 84.5912 30.4227C85.2529 29.2959 85.6006 28.01 85.5976 26.7006V12.9933H82.776V14.317C81.745 13.2231 80.3342 12.5667 78.6195 12.5667V12.5558ZM75.0925 19.5243C75.0925 17.1722 76.8723 15.3235 78.9342 15.3235C80.9962 15.3235 82.7651 17.1832 82.7651 19.5243C82.7651 21.8763 80.9853 23.7141 78.9342 23.7141C76.8723 23.7141 75.0925 21.8763 75.0925 19.5243Z" fill="#D0D5DD"/>
<path d="M95.7338 15.3235C94.9268 15.3379 94.1578 15.6719 93.5932 16.2533C93.0287 16.8347 92.7138 17.6168 92.7168 18.4304V27.7946H89.8951V12.9825H92.7168V14.339C93.1389 13.775 93.6873 13.3195 94.3172 13.0096C94.9471 12.6997 95.6407 12.5443 96.3415 12.5558C98.3166 12.5558 99.836 13.5404 100.704 15.05C101.189 14.2932 101.851 13.6693 102.634 13.234C103.416 12.7987 104.293 12.5657 105.186 12.5558C108.388 12.5558 110.395 15.1594 110.395 18.3866V27.7946H107.595V18.4194C107.598 17.6058 107.284 16.8238 106.719 16.2424C106.154 15.661 105.385 15.327 104.578 15.3126C103.772 15.327 103.003 15.661 102.438 16.2424C101.873 16.8238 101.559 17.6058 101.562 18.4194V27.7837H98.7399V18.4194C98.7429 17.6077 98.4295 16.8272 97.8673 16.2461C97.305 15.665 96.5388 15.3298 95.7338 15.3126V15.3235Z" fill="#D0D5DD"/>
<path fill-rule="evenodd" clip-rule="evenodd" d="M125.404 14.6671C124.764 13.9936 123.993 13.459 123.141 13.096C122.288 12.733 121.37 12.5492 120.445 12.5558C116.256 12.5558 113.282 16.1221 113.282 20.3885C113.282 24.6549 116.256 28.2212 120.445 28.2212C121.37 28.226 122.287 28.0413 123.139 27.6784C123.992 27.3154 124.762 26.7818 125.404 26.1099V27.7946H128.215V12.9824H125.394V14.6671H125.404ZM116.093 20.3885C116.093 17.5661 118.242 15.3235 120.749 15.3235C123.245 15.3235 125.404 17.5661 125.404 20.3885C125.404 23.2109 123.256 25.4426 120.749 25.4426C118.253 25.4426 116.093 23.2109 116.093 20.3885Z" fill="#D0D5DD"/>
</g>
</g>
</svg>
