<svg width="180" height="40" viewBox="0 0 180 40" fill="none" xmlns="http://www.w3.org/2000/svg">
<g id="Company logo">
<g id="Vector">
<path d="M33.6211 1.74219H57.8459V13.8546H45.7335L33.6211 1.74219ZM33.6211 13.8546H45.7335L57.8459 25.967H33.6211V13.8546ZM33.6211 25.967H45.7335V38.0795L33.6211 25.967Z" fill="#D0D5DD"/>
<path d="M71.5144 11.2977H81.3065V14.4094H75.2207V18.7335H81.3065V21.7764H75.2207V27.3131H71.5144V11.2977ZM83.3198 16.2852H86.8205V18.5961C87.0034 17.802 87.3774 17.1924 87.9416 16.7657C88.5201 16.3229 89.1624 16.1023 89.8634 16.1023C90.2297 16.1023 90.5351 16.1334 90.7783 16.1938V19.4429C90.4292 19.4007 90.0779 19.378 89.726 19.3741C88.7651 19.3741 88.0413 19.6861 87.5525 20.3118C87.0654 20.9219 86.8205 21.8369 86.8205 23.0577V27.3131H83.3215V16.2852H83.3198ZM96.3045 27.6107C95.2372 27.6107 94.3062 27.3586 93.5132 26.8554C92.7351 26.3522 92.1167 25.6379 91.7287 24.7961C91.317 23.9122 91.1097 22.9119 91.1097 21.7992C91.1097 20.7008 91.3248 19.7089 91.7515 18.825C92.1516 17.971 92.7866 17.2489 93.5819 16.7429C94.3893 16.2398 95.3125 15.9876 96.3505 15.9876C97.128 15.9876 97.8229 16.1561 98.4325 16.4914C99.0421 16.8277 99.4998 17.2855 99.8052 17.864V16.2852H103.283V27.3131H99.8052V25.757C99.4998 26.3062 99.0271 26.7556 98.3865 27.107C97.7459 27.4467 97.0299 27.6196 96.3045 27.6107ZM97.3114 24.7047C98.1499 24.7047 98.7982 24.4304 99.256 23.8812C99.7137 23.332 99.9426 22.6376 99.9426 21.7992C99.9426 20.9757 99.7137 20.2891 99.256 19.7399C98.7982 19.1907 98.1499 18.9164 97.3114 18.9164C96.5173 18.9164 95.8778 19.1829 95.3896 19.7172C94.9169 20.2514 94.6802 20.9446 94.6802 21.7992C94.6802 22.6537 94.9169 23.3547 95.3896 23.9039C95.8778 24.4381 96.5184 24.7047 97.3114 24.7047ZM105.731 16.2852H109.232V17.8867C109.476 17.3215 109.872 16.8638 110.421 16.5141C110.986 16.1644 111.642 15.9876 112.389 15.9876C114.128 15.9876 115.28 16.6659 115.843 18.0242C116.154 17.4085 116.639 16.8992 117.239 16.5601C117.881 16.1738 118.618 15.976 119.367 15.9876C121.975 15.9876 123.279 17.4817 123.279 20.4719V27.3131H119.756V21.1126C119.756 20.3661 119.618 19.8169 119.344 19.4656C119.069 19.1153 118.657 18.9391 118.108 18.9391C117.514 18.9391 117.056 19.1453 116.736 19.557C116.415 19.9538 116.255 20.6471 116.255 21.639V27.3131H112.732V21.0898C112.732 20.3428 112.595 19.8008 112.32 19.4656C112.062 19.1153 111.657 18.9391 111.108 18.9391C110.498 18.9391 110.032 19.1453 109.712 19.557C109.392 19.9538 109.232 20.6471 109.232 21.639V27.3131H105.732V16.2852H105.731ZM136.429 21.2273C136.429 21.6994 136.398 22.2109 136.336 22.7601H128.193C128.224 23.4772 128.467 24.0253 128.925 24.4076C129.383 24.7883 130.002 24.9795 130.778 24.9795C131.861 24.9795 132.548 24.6509 132.837 23.9953H136.269C136.101 25.0787 135.506 25.9549 134.484 26.6265C133.478 27.2821 132.242 27.6107 130.778 27.6107C128.887 27.6107 127.4 27.0992 126.316 26.0773C125.249 25.0549 124.715 23.6296 124.715 21.7992C124.715 20.6094 124.959 19.5797 125.447 18.7102C125.919 17.8419 126.646 17.1392 127.529 16.697C128.43 16.2248 129.474 15.9876 130.665 15.9876C131.793 15.9876 132.791 16.2087 133.661 16.6515C134.545 17.0943 135.225 17.7116 135.697 18.5046C136.186 19.2988 136.429 20.2059 136.429 21.2273ZM132.973 20.5867C132.958 19.8546 132.753 19.2971 132.355 18.9164C131.96 18.5357 131.387 18.3445 130.64 18.3445C129.893 18.3445 129.298 18.5501 128.855 18.9624C128.428 19.3592 128.207 19.9 128.191 20.5867H132.973ZM137.973 16.2852H141.474V18.5961C141.656 17.802 142.03 17.1924 142.595 16.7657C143.142 16.3345 143.819 16.1007 144.516 16.1023C144.882 16.1023 145.188 16.1334 145.431 16.1938V19.4429C145.082 19.4007 144.731 19.378 144.379 19.3741C143.418 19.3741 142.694 19.6861 142.206 20.3118C141.717 20.9219 141.474 21.8369 141.474 23.0577V27.3131H137.973V16.2852Z" fill="#D0D5DD"/>
</g>
</g>
</svg>
