<svg width="180" height="40" viewBox="0 0 180 40" fill="none" xmlns="http://www.w3.org/2000/svg">
<g id="Company logo">
<path id="Union" fill-rule="evenodd" clip-rule="evenodd" d="M54.982 15.1413V18.402L62.7751 18.3985C62.536 20.1969 61.9296 21.5136 61.0078 22.4353C59.8713 23.5719 58.0972 24.8228 54.982 24.8228C50.1794 24.8228 46.4232 20.9523 46.4232 16.1496C46.4232 11.347 50.1794 7.47648 54.982 7.47648C57.5739 7.47648 59.4659 8.49523 60.8623 9.80504L63.1631 7.50421C61.2158 5.64344 58.6239 4.21582 54.9855 4.21582C48.4087 4.21582 42.8784 9.57287 42.8784 16.1496C42.8784 22.7264 48.4087 28.0835 54.9855 28.0835C58.5338 28.0835 61.2123 26.9192 63.3087 24.7362C65.464 22.5809 66.1327 19.5558 66.1327 17.1095C66.1327 16.3818 66.0773 15.7096 65.9699 15.1413H54.982ZM120.719 27.6159V5.09273H117.427V27.6159H120.719ZM75.1524 28.087C79.4006 28.087 82.8622 24.8264 82.8622 20.4014C82.8622 15.9453 79.4006 12.7158 75.1524 12.7158C70.9041 12.7158 67.4425 15.9453 67.4425 20.4014C67.4425 24.8264 70.9041 28.087 75.1524 28.087ZM75.1524 15.7443C77.4809 15.7443 79.4872 17.6363 79.4872 20.4014C79.4872 23.1354 77.4809 25.0585 75.1524 25.0585C72.8238 25.0585 70.8175 23.1389 70.8175 20.4014C70.8175 17.6363 72.8238 15.7443 75.1524 15.7443ZM91.7851 28.087C96.0333 28.087 99.4949 24.8264 99.4949 20.4014C99.4949 15.9453 96.0333 12.7158 91.7851 12.7158C87.5369 12.7158 84.0752 15.9488 84.0752 20.4014C84.0752 24.8264 87.5369 28.087 91.7851 28.087ZM91.7851 15.7443C94.1136 15.7443 96.1199 17.6363 96.1199 20.4014C96.1199 23.1354 94.1136 25.0585 91.7851 25.0585C89.4565 25.0585 87.4502 23.1389 87.4502 20.4014C87.4502 17.6363 89.4565 15.7443 91.7851 15.7443ZM115.435 13.1836V26.9782C115.435 32.6541 112.087 34.9722 108.13 34.9722C104.405 34.9722 102.163 32.4808 101.318 30.4433L104.256 29.2201C104.779 30.471 106.062 31.9472 108.127 31.9472C110.66 31.9472 112.229 30.3844 112.229 27.4425V26.3372H112.112C111.356 27.2693 109.901 28.0836 108.064 28.0836C104.222 28.0836 100.701 24.7363 100.701 20.4292C100.701 16.0909 104.222 12.7158 108.064 12.7158C109.897 12.7158 111.353 13.5301 112.112 14.4345H112.229V13.1836H115.435ZM112.469 20.4292C112.469 17.7229 110.663 15.7443 108.366 15.7443C106.037 15.7443 104.086 17.7229 104.086 20.4292C104.086 23.1077 106.037 25.0585 108.366 25.0585C110.663 25.0585 112.469 23.1077 112.469 20.4292ZM133.547 22.931L136.166 24.6774C135.321 25.9283 133.283 28.0836 129.763 28.0836C125.397 28.0836 122.136 24.7086 122.136 20.398C122.136 15.8275 125.425 12.7124 129.385 12.7124C133.373 12.7124 135.324 15.8864 135.962 17.6017L136.312 18.4749L126.038 22.73C126.824 24.272 128.048 25.0586 129.763 25.0586C131.482 25.0586 132.674 24.2131 133.547 22.931ZM125.483 20.1658L132.351 17.314C131.974 16.3542 130.837 15.6854 129.499 15.6854C127.784 15.6854 125.397 17.1997 125.483 20.1658Z" fill="#D0D5DD"/>
</g>
</svg>
