<svg width="64" height="64" viewBox="0 0 64 64" fill="none" xmlns="http://www.w3.org/2000/svg">
<path d="M0 25.6C0 16.6392 0 12.1587 1.7439 8.73615C3.27787 5.72556 5.72556 3.27787 8.73615 1.7439C12.1587 0 16.6392 0 25.6 0H38.4C47.3608 0 51.8413 0 55.2638 1.7439C58.2744 3.27787 60.7221 5.72556 62.2561 8.73615C64 12.1587 64 16.6392 64 25.6V38.4C64 47.3608 64 51.8413 62.2561 55.2638C60.7221 58.2744 58.2744 60.7221 55.2638 62.2561C51.8413 64 47.3608 64 38.4 64H25.6C16.6392 64 12.1587 64 8.73615 62.2561C5.72556 60.7221 3.27787 58.2744 1.7439 55.2638C0 51.8413 0 47.3608 0 38.4V25.6Z" fill="url(#paint0_linear_332_29458)"/>
<g filter="url(#filter0_d_332_29458)">
<path d="M35.3504 15.3337C35.3504 14.4132 36.0966 13.667 37.0171 13.667C37.9376 13.667 38.6838 14.4132 38.6838 15.3337V17.8337C38.6838 18.7541 37.9376 19.5003 37.0171 19.5003C36.0966 19.5003 35.3504 18.7541 35.3504 17.8337V15.3337Z" fill="url(#paint1_linear_332_29458)" shape-rendering="crispEdges"/>
<path d="M44.1719 17.4885C44.8228 16.8376 45.8781 16.8376 46.5289 17.4885C47.1798 18.1394 47.1798 19.1946 46.5289 19.8455L44.7612 21.6133C44.1103 22.2641 43.055 22.2641 42.4041 21.6133C41.7533 20.9624 41.7533 19.9071 42.4041 19.2562L44.1719 17.4885Z" fill="url(#paint2_linear_332_29458)" shape-rendering="crispEdges"/>
<path d="M42.4041 32.4885C41.7533 33.1394 41.7533 34.1946 42.4041 34.8455L44.1719 36.6133C44.8228 37.2641 45.8781 37.2641 46.5289 36.6133C47.1798 35.9624 47.1798 34.9071 46.5289 34.2562L44.7612 32.4885C44.1103 31.8376 43.055 31.8376 42.4041 32.4885Z" fill="url(#paint3_linear_332_29458)" shape-rendering="crispEdges"/>
<path d="M27.4041 19.8455C26.7533 19.1946 26.7533 18.1394 27.4041 17.4885C28.055 16.8376 29.1103 16.8376 29.7612 17.4885L31.5289 19.2562C32.1798 19.9071 32.1798 20.9624 31.5289 21.6133C30.8781 22.2641 29.8228 22.2641 29.1719 21.6133L27.4041 19.8455Z" fill="url(#paint4_linear_332_29458)" shape-rendering="crispEdges"/>
<path d="M48.6838 25.3337H46.1838C45.2633 25.3337 44.5171 26.0799 44.5171 27.0003C44.5171 27.9208 45.2633 28.667 46.1838 28.667H48.6838C49.6042 28.667 50.3504 27.9208 50.3504 27.0003C50.3504 26.0799 49.6042 25.3337 48.6838 25.3337Z" fill="url(#paint5_linear_332_29458)" shape-rendering="crispEdges"/>
<path fill-rule="evenodd" clip-rule="evenodd" d="M33.4701 23.6869C34.1396 23.4694 34.8607 23.4694 35.5302 23.6869C36.0131 23.8438 36.3829 24.1097 36.6743 24.3571C36.9397 24.5824 37.2293 24.8721 37.5267 25.1696L38.8306 26.4735C39.1281 26.7709 39.4178 27.0606 39.6431 27.3259C39.8905 27.6173 40.1564 27.9872 40.3133 28.47C40.5308 29.1395 40.5308 29.8607 40.3133 30.5301C40.1564 31.013 39.8905 31.3828 39.6431 31.6742C39.4178 31.9396 39.1281 32.2292 38.8306 32.5266L23.36 47.9972C23.0626 48.2947 22.773 48.5844 22.5076 48.8097C22.2162 49.0571 21.8464 49.323 21.3635 49.4799C20.6941 49.6974 19.9729 49.6974 19.3034 49.4799C18.8206 49.323 18.4508 49.0571 18.1593 48.8097C17.894 48.5844 17.6043 48.2947 17.307 47.9972L16.003 46.6933C15.7056 46.3959 15.4158 46.1062 15.1906 45.8409C14.9432 45.5495 14.6772 45.1797 14.5203 44.6968C14.3028 44.0273 14.3028 43.3062 14.5203 42.6367C14.6772 42.1538 14.9432 41.784 15.1906 41.4926C15.4158 41.2272 15.7055 40.9376 16.003 40.6402L31.4736 25.1696C31.771 24.8721 32.0607 24.5824 32.326 24.3571C32.6174 24.1097 32.9872 23.8438 33.4701 23.6869ZM33.3992 32.5806C33.2088 32.5187 33.0436 32.3536 32.7132 32.0232L31.977 31.287C31.6467 30.9566 31.4815 30.7915 31.4197 30.601C31.3653 30.4335 31.3654 30.2531 31.42 30.0856C31.482 29.8952 31.6474 29.7303 31.9781 29.4003L33.5573 27.8247C33.8874 27.4954 34.0524 27.3308 34.2426 27.2692C34.4099 27.2149 34.59 27.2151 34.7573 27.2695C34.9474 27.3313 35.1122 27.4961 35.4419 27.8258L36.1744 28.5584C36.5041 28.888 36.6689 29.0529 36.7308 29.243C36.7852 29.4102 36.7853 29.5903 36.7311 29.7576C36.6695 29.9478 36.5048 30.1128 36.1755 30.4429L34.5999 32.0221C34.27 32.3529 34.105 32.5182 33.9146 32.5803C33.7472 32.6348 33.5667 32.6349 33.3992 32.5806Z" fill="url(#paint6_linear_332_29458)" shape-rendering="crispEdges"/>
</g>
<defs>
<filter id="filter0_d_332_29458" x="13.8572" y="13.417" width="36.9933" height="36.9756" filterUnits="userSpaceOnUse" color-interpolation-filters="sRGB">
<feFlood flood-opacity="0" result="BackgroundImageFix"/>
<feColorMatrix in="SourceAlpha" type="matrix" values="0 0 0 0 0 0 0 0 0 0 0 0 0 0 0 0 0 0 127 0" result="hardAlpha"/>
<feOffset dy="0.25"/>
<feGaussianBlur stdDeviation="0.25"/>
<feComposite in2="hardAlpha" operator="out"/>
<feColorMatrix type="matrix" values="0 0 0 0 0 0 0 0 0 0 0 0 0 0 0 0 0 0 0.2 0"/>
<feBlend mode="normal" in2="BackgroundImageFix" result="effect1_dropShadow_332_29458"/>
<feBlend mode="normal" in="SourceGraphic" in2="effect1_dropShadow_332_29458" result="shape"/>
</filter>
<linearGradient id="paint0_linear_332_29458" x1="32" y1="0" x2="32" y2="64" gradientUnits="userSpaceOnUse">
<stop stop-color="#D8D8D8"/>
<stop offset="1" stop-color="#A6A6A6"/>
</linearGradient>
<linearGradient id="paint1_linear_332_29458" x1="32.3538" y1="13.667" x2="32.3538" y2="49.6431" gradientUnits="userSpaceOnUse">
<stop stop-color="white"/>
<stop offset="1" stop-color="white" stop-opacity="0.7"/>
</linearGradient>
<linearGradient id="paint2_linear_332_29458" x1="32.3538" y1="13.667" x2="32.3538" y2="49.6431" gradientUnits="userSpaceOnUse">
<stop stop-color="white"/>
<stop offset="1" stop-color="white" stop-opacity="0.7"/>
</linearGradient>
<linearGradient id="paint3_linear_332_29458" x1="32.3538" y1="13.667" x2="32.3538" y2="49.6431" gradientUnits="userSpaceOnUse">
<stop stop-color="white"/>
<stop offset="1" stop-color="white" stop-opacity="0.7"/>
</linearGradient>
<linearGradient id="paint4_linear_332_29458" x1="32.3538" y1="13.667" x2="32.3538" y2="49.6431" gradientUnits="userSpaceOnUse">
<stop stop-color="white"/>
<stop offset="1" stop-color="white" stop-opacity="0.7"/>
</linearGradient>
<linearGradient id="paint5_linear_332_29458" x1="32.3538" y1="13.667" x2="32.3538" y2="49.6431" gradientUnits="userSpaceOnUse">
<stop stop-color="white"/>
<stop offset="1" stop-color="white" stop-opacity="0.7"/>
</linearGradient>
<linearGradient id="paint6_linear_332_29458" x1="32.3538" y1="13.667" x2="32.3538" y2="49.6431" gradientUnits="userSpaceOnUse">
<stop stop-color="white"/>
<stop offset="1" stop-color="white" stop-opacity="0.7"/>
</linearGradient>
</defs>
</svg>
