<svg width="64" height="64" viewBox="0 0 64 64" fill="none" xmlns="http://www.w3.org/2000/svg">
<path d="M0 25.6C0 16.6392 0 12.1587 1.7439 8.73615C3.27787 5.72556 5.72556 3.27787 8.73615 1.7439C12.1587 0 16.6392 0 25.6 0H38.4C47.3608 0 51.8413 0 55.2638 1.7439C58.2744 3.27787 60.7221 5.72556 62.2561 8.73615C64 12.1587 64 16.6392 64 25.6V38.4C64 47.3608 64 51.8413 62.2561 55.2638C60.7221 58.2744 58.2744 60.7221 55.2638 62.2561C51.8413 64 47.3608 64 38.4 64H25.6C16.6392 64 12.1587 64 8.73615 62.2561C5.72556 60.7221 3.27787 58.2744 1.7439 55.2638C0 51.8413 0 47.3608 0 38.4V25.6Z" fill="url(#paint0_linear_332_29468)"/>
<g filter="url(#filter0_d_332_29468)">
<path fill-rule="evenodd" clip-rule="evenodd" d="M31 12.667C27.3181 12.667 24.3333 15.6518 24.3333 19.3337V31.0003C24.3333 34.6822 27.3181 37.667 31 37.667C34.6819 37.667 37.6667 34.6822 37.6667 31.0003V19.3337C37.6667 15.6518 34.6819 12.667 31 12.667Z" fill="url(#paint1_linear_332_29468)" shape-rendering="crispEdges"/>
<path d="M21 27.667C21 26.7465 20.2538 26.0003 19.3333 26.0003C18.4129 26.0003 17.6667 26.7465 17.6667 27.667V31.0003C17.6667 37.8008 22.7578 43.4121 29.3365 44.2309C29.3344 44.2649 29.3333 44.2991 29.3333 44.3337V46.0003H24.3333C23.4129 46.0003 22.6667 46.7465 22.6667 47.667C22.6667 48.5875 23.4129 49.3337 24.3333 49.3337H37.6667C38.5871 49.3337 39.3333 48.5875 39.3333 47.667C39.3333 46.7465 38.5871 46.0003 37.6667 46.0003H32.6667V44.3337C32.6667 44.2991 32.6656 44.2649 32.6635 44.2309C39.2422 43.4121 44.3333 37.8008 44.3333 31.0003V27.667C44.3333 26.7465 43.5871 26.0003 42.6667 26.0003C41.7462 26.0003 41 26.7465 41 27.667V31.0003C41 36.5232 36.5228 41.0003 31 41.0003C25.4771 41.0003 21 36.5232 21 31.0003V27.667Z" fill="url(#paint2_linear_332_29468)" shape-rendering="crispEdges"/>
</g>
<defs>
<filter id="filter0_d_332_29468" x="17.1667" y="12.417" width="27.6667" height="37.667" filterUnits="userSpaceOnUse" color-interpolation-filters="sRGB">
<feFlood flood-opacity="0" result="BackgroundImageFix"/>
<feColorMatrix in="SourceAlpha" type="matrix" values="0 0 0 0 0 0 0 0 0 0 0 0 0 0 0 0 0 0 127 0" result="hardAlpha"/>
<feOffset dy="0.25"/>
<feGaussianBlur stdDeviation="0.25"/>
<feComposite in2="hardAlpha" operator="out"/>
<feColorMatrix type="matrix" values="0 0 0 0 0 0 0 0 0 0 0 0 0 0 0 0 0 0 0.2 0"/>
<feBlend mode="normal" in2="BackgroundImageFix" result="effect1_dropShadow_332_29468"/>
<feBlend mode="normal" in="SourceGraphic" in2="effect1_dropShadow_332_29468" result="shape"/>
</filter>
<linearGradient id="paint0_linear_332_29468" x1="32" y1="0" x2="32" y2="64" gradientUnits="userSpaceOnUse">
<stop stop-color="#D8D8D8"/>
<stop offset="1" stop-color="#A6A6A6"/>
</linearGradient>
<linearGradient id="paint1_linear_332_29468" x1="31" y1="12.667" x2="31" y2="49.3337" gradientUnits="userSpaceOnUse">
<stop stop-color="white"/>
<stop offset="1" stop-color="white" stop-opacity="0.7"/>
</linearGradient>
<linearGradient id="paint2_linear_332_29468" x1="31" y1="12.667" x2="31" y2="49.3337" gradientUnits="userSpaceOnUse">
<stop stop-color="white"/>
<stop offset="1" stop-color="white" stop-opacity="0.7"/>
</linearGradient>
</defs>
</svg>
