<svg width="32" height="32" viewBox="0 0 32 32" fill="none" xmlns="http://www.w3.org/2000/svg">
<g id="Logo">
<g id="Clip path group">
<mask id="mask0_646_24190" style="mask-type:luminance" maskUnits="userSpaceOnUse" x="0" y="0" width="31" height="31">
<g id="clippath">
<path id="Vector" d="M15.5 0C24.0591 0 31 6.9409 31 15.5C31 24.0591 24.0591 31 15.5 31C6.9409 31 0 24.0591 0 15.5C0 6.9409 6.9409 0 15.5 0Z" fill="white"/>
</g>
</mask>
<g mask="url(#mask0_646_24190)">
<g id="Group">
<g id="Group_2">
<path id="Vector_2" d="M15.4661 21.7747L10.534 16.8488C10.1496 16.4644 9.52647 16.4644 9.14207 16.8488L-0.00292969 25.9938V31.0003H24.6948L15.463 21.7747H15.4661Z" fill="url(#paint0_linear_646_24190)"/>
<path id="Vector_3" d="M15.4597 9.11417L20.4073 14.0587C20.7917 14.4431 21.4148 14.4431 21.7992 14.0587L31 4.85787V-0.00292969H6.3457L15.4628 9.11107L15.4597 9.11417Z" fill="url(#paint1_linear_646_24190)"/>
<path id="Vector_4" d="M21.7871 15.438L21.7964 15.4473L16.8488 20.3949C16.4644 20.7793 16.4644 21.4024 16.8488 21.7868L26.0651 31.0031H31.0034V6.22168L21.7902 15.4349L21.7871 15.438Z" fill="url(#paint2_linear_646_24190)"/>
<path id="Vector_5" d="M4.9817 0H0V24.6295L9.145 15.4597L14.0864 10.4935C14.4677 10.1091 14.4677 9.4891 14.0864 9.1047L4.9817 0Z" fill="url(#paint3_linear_646_24190)"/>
</g>
</g>
</g>
</g>
</g>
<defs>
<linearGradient id="paint0_linear_646_24190" x1="1.66177" y1="13.3861" x2="10.0101" y2="27.147" gradientUnits="userSpaceOnUse">
<stop offset="0.14" stop-color="#B692F6"/>
<stop offset="1" stop-color="#6941C6"/>
</linearGradient>
<linearGradient id="paint1_linear_646_24190" x1="6.3457" y1="7.17357" x2="31" y2="7.17357" gradientUnits="userSpaceOnUse">
<stop stop-color="#B692F6"/>
<stop offset="1" stop-color="#9E77ED"/>
</linearGradient>
<linearGradient id="paint2_linear_646_24190" x1="25.2126" y1="5.29168" x2="23.8052" y2="25.6649" gradientUnits="userSpaceOnUse">
<stop stop-color="#9E77ED"/>
<stop offset="1" stop-color="#6941C6"/>
</linearGradient>
<linearGradient id="paint3_linear_646_24190" x1="3.4379" y1="7.9236" x2="11.4576" y2="27.5931" gradientUnits="userSpaceOnUse">
<stop stop-color="#B692F6"/>
<stop offset="0.93" stop-color="#6941C6"/>
</linearGradient>
</defs>
</svg>
