<svg width="24" height="25" viewBox="0 0 24 25" fill="none" xmlns="http://www.w3.org/2000/svg">
<g id="Social icon" clip-path="url(#clip0_468_43662)">
<path id="Vector" d="M22.2283 0.518555H1.77167C1.30179 0.518555 0.851161 0.705212 0.518909 1.03746C0.186657 1.36972 0 1.82035 0 2.29022V22.7469C0 23.2168 0.186657 23.6674 0.518909 23.9996C0.851161 24.3319 1.30179 24.5186 1.77167 24.5186H22.2283C22.6982 24.5186 23.1488 24.3319 23.4811 23.9996C23.8133 23.6674 24 23.2168 24 22.7469V2.29022C24 1.82035 23.8133 1.36972 23.4811 1.03746C23.1488 0.705212 22.6982 0.518555 22.2283 0.518555ZM7.15333 20.9636H3.545V9.50189H7.15333V20.9636ZM5.34667 7.91356C4.93736 7.91125 4.53792 7.78775 4.19873 7.55864C3.85955 7.32953 3.59584 7.00509 3.44088 6.62624C3.28591 6.2474 3.24665 5.83115 3.32803 5.43001C3.40941 5.02887 3.6078 4.66083 3.89816 4.37234C4.18851 4.08384 4.55782 3.88782 4.95947 3.80902C5.36112 3.73021 5.77711 3.77215 6.15495 3.92954C6.53279 4.08693 6.85554 4.35272 7.08247 4.69337C7.30939 5.03401 7.43032 5.43425 7.43 5.84356C7.43386 6.11759 7.38251 6.38959 7.27901 6.64336C7.17551 6.89712 7.02198 7.12745 6.82757 7.32062C6.63316 7.51379 6.40185 7.66584 6.14742 7.76771C5.893 7.86957 5.62067 7.91918 5.34667 7.91356ZM20.4533 20.9736H16.8467V14.7119C16.8467 12.8652 16.0617 12.2952 15.0483 12.2952C13.9783 12.2952 12.9283 13.1019 12.9283 14.7586V20.9736H9.32V9.51022H12.79V11.0986H12.8367C13.185 10.3936 14.405 9.18856 16.2667 9.18856C18.28 9.18856 20.455 10.3836 20.455 13.8836L20.4533 20.9736Z" fill="#7E7C8B"/>
</g>
<defs>
<clipPath id="clip0_468_43662">
<rect width="24" height="24" fill="white" transform="translate(0 0.518555)"/>
</clipPath>
</defs>
</svg>
