<svg width="24" height="25" viewBox="0 0 24 25" fill="none" xmlns="http://www.w3.org/2000/svg">
<g id="Social icon">
<path id="Vector" fill-rule="evenodd" clip-rule="evenodd" d="M24 12.5186C24 19.146 18.6274 24.5186 12 24.5186C5.3726 24.5186 1.52588e-05 19.146 1.52588e-05 12.5186C1.52588e-05 5.89114 5.3726 0.518555 12 0.518555C18.6274 0.518555 24 5.89114 24 12.5186ZM12.43 9.37748C11.2629 9.86295 8.93015 10.8678 5.43191 12.3919C4.86385 12.6178 4.56627 12.8388 4.53918 13.0549C4.4934 13.4201 4.95073 13.5639 5.57349 13.7597C5.6582 13.7863 5.74597 13.8139 5.83595 13.8432C6.44865 14.0423 7.27284 14.2753 7.7013 14.2846C8.08996 14.293 8.52374 14.1328 9.00266 13.8039C12.2712 11.5976 13.9584 10.4824 14.0643 10.4583C14.1391 10.4414 14.2426 10.42 14.3128 10.4824C14.3829 10.5448 14.376 10.6629 14.3686 10.6946C14.3233 10.8877 12.5281 12.5567 11.5991 13.4203C11.3095 13.6896 11.1041 13.8806 11.0621 13.9242C10.968 14.0219 10.8721 14.1143 10.78 14.2032C10.2108 14.7519 9.78393 15.1634 10.8036 15.8353C11.2936 16.1583 11.6858 16.4253 12.0769 16.6917C12.5042 16.9826 12.9303 17.2728 13.4816 17.6342C13.6221 17.7263 13.7562 17.8219 13.8869 17.9151C14.3841 18.2695 14.8308 18.588 15.3826 18.5372C15.7033 18.5077 16.0345 18.2062 16.2027 17.3069C16.6002 15.1817 17.3816 10.577 17.5622 8.67953C17.5781 8.51328 17.5582 8.30053 17.5422 8.20713C17.5262 8.11373 17.4928 7.98066 17.3714 7.88215C17.2276 7.76549 17.0056 7.74089 16.9064 7.74264C16.455 7.75059 15.7626 7.99137 12.43 9.37748Z" fill="#2F2B43" fill-opacity="0.6"/>
</g>
</svg>
